<svg width="360" height="451" viewBox="0 0 360 451" fill="none" xmlns="http://www.w3.org/2000/svg">
<rect width="360" height="451" fill="white"/>
<path d="M158.661 278.576L163.249 279.112H174.351L169.523 278.491C168.541 278.38 169.033 278.203 171.815 278.203H196.976C198.107 278.425 222.203 278.742 227.446 278.326C229.239 278.159 233.044 277.804 233.044 275.387H188.873C187.804 275.67 190.518 276.183 196.322 276.385V277.513H166.679C154.462 277.513 156.4 278.284 158.661 278.576Z" fill="#D9D9D9"/>
<path d="M201.872 276.471C199.599 276.467 197.775 276.436 196.322 276.385M196.322 276.385C190.518 276.183 187.804 275.67 188.873 275.387H233.044C233.044 277.804 229.239 278.159 227.446 278.326C222.203 278.742 198.107 278.425 196.976 278.203H171.815C169.033 278.203 168.541 278.38 169.523 278.491L174.351 279.112H163.249L158.661 278.576C156.4 278.284 154.462 277.513 166.679 277.513H196.322V276.385Z" stroke="#D9D9D9" stroke-width="4.58378"/>
<path d="M182.091 275.387H129.553C128.721 276.36 150.285 276.653 164.505 276.36L176.131 279H188.063L178.487 276.317C183.627 276.236 182.813 275.663 182.091 275.387Z" fill="#D9D9D9"/>
<path d="M168.739 276.236C167.624 276.263 165.769 276.334 164.505 276.36M164.505 276.36C150.285 276.653 128.721 276.36 129.553 275.387H182.091C182.813 275.663 183.627 276.236 178.487 276.317L188.063 279H176.131L164.505 276.36Z" stroke="#D9D9D9" stroke-width="4.58378"/>
<path fill-rule="evenodd" clip-rule="evenodd" d="M202.157 284.133C202.157 284.133 191.679 284.523 182.839 284.722L192.681 286.797C194.306 287.33 203.837 287.544 209.835 287.182L222.019 286.404C227.297 286.085 226.359 285.532 220.866 285.287C220.474 285.269 220.075 285.253 219.675 285.236C218.502 285.186 217.326 285.137 216.332 285.071L202.157 284.133ZM209.388 285.762L198.684 285.521C199.214 285.715 200.1 285.928 200.773 286.077C201.345 286.203 202.273 286.334 203.888 286.412C204.657 286.449 205.403 286.454 206.438 286.392L209.025 286.236C210.034 286.175 210.878 286.101 211.288 286.011C212.036 285.847 211.369 285.806 209.388 285.762Z" fill="#D9D9D9"/>
<path d="M132.36 282.583C132.654 282.833 133.027 282.97 133.412 282.97H175.528C176.425 282.97 177.151 282.243 177.151 281.347V280.736C177.151 279.84 176.425 279.113 175.528 279.113H132.695C131.184 279.113 130.492 280.995 131.643 281.973L132.36 282.583Z" fill="#D9D9D9" stroke="#D9D9D9" stroke-width="0.444646"/>
<path d="M124.414 284.513C124.507 284.604 124.633 284.655 124.764 284.655H176.31C176.775 284.655 177.152 284.279 177.152 283.814C177.152 283.345 176.768 282.966 176.299 282.973L124.757 283.658C124.314 283.664 124.098 284.202 124.414 284.513Z" fill="#D9D9D9" stroke="#D9D9D9" stroke-width="0.444646"/>
<path d="M185.07 281.347C185.07 282.243 185.797 282.97 186.694 282.97H230.789C232.238 282.97 232.961 281.215 231.932 280.194L231.317 279.584C231.013 279.282 230.602 279.113 230.173 279.113H186.694C185.797 279.113 185.07 279.84 185.07 280.736V281.347Z" fill="#D9D9D9" stroke="#D9D9D9" stroke-width="0.444646"/>
<rect x="0.222323" y="-0.222323" width="56.6452" height="1.00067" rx="0.500333" transform="matrix(1 0 0 -1 180.836 284.337)" fill="#D9D9D9" stroke="#D9D9D9" stroke-width="0.444646"/>
<path d="M195.281 284.678C187.751 284.612 175.964 284.089 172.446 284.17C170.026 284.226 164.545 284.704 161.359 284.997C159.774 285.143 157.424 285.242 155.399 285.359C150.846 285.624 150.358 286.126 155.284 286.423L168.913 287.201C174.912 287.563 184.442 287.349 186.068 286.817L191.022 285.289C191.022 285.289 190.37 284.811 195.281 284.678Z" fill="#D9D9D9"/>
<mask id="path-11-inside-1_202_241" fill="white">
<ellipse cx="15.4015" cy="1.0928" rx="15.4015" ry="1.0928" transform="matrix(1 0 0 -1 188.479 284.088)"/>
</mask>
<ellipse cx="15.4015" cy="1.0928" rx="15.4015" ry="1.0928" transform="matrix(1 0 0 -1 188.479 284.088)" fill="white"/>
<path d="M216.008 282.995C216.008 284.62 217.142 285.437 217.328 285.567C217.639 285.784 217.889 285.865 217.897 285.868C217.955 285.888 217.868 285.855 217.53 285.798C216.905 285.693 215.899 285.584 214.54 285.488C211.852 285.297 208.082 285.176 203.881 285.176V278.628C208.186 278.628 212.117 278.751 215.003 278.956C216.431 279.057 217.681 279.184 218.614 279.34C219.056 279.415 219.574 279.519 220.042 279.681C220.255 279.755 220.662 279.908 221.078 280.199C221.369 280.402 222.557 281.294 222.557 282.995H216.008ZM203.881 285.176C199.68 285.176 195.91 285.297 193.222 285.488C191.863 285.584 190.857 285.693 190.231 285.798C189.894 285.855 189.807 285.888 189.865 285.868C189.873 285.865 190.123 285.784 190.434 285.567C190.62 285.437 191.754 284.62 191.754 282.995H185.205C185.205 281.294 186.393 280.402 186.684 280.199C187.1 279.908 187.507 279.755 187.72 279.681C188.188 279.519 188.706 279.415 189.148 279.34C190.081 279.184 191.331 279.057 192.759 278.956C195.645 278.751 199.576 278.628 203.881 278.628V285.176ZM191.754 282.995C191.754 281.369 190.62 280.552 190.434 280.423C190.123 280.205 189.873 280.124 189.865 280.122C189.807 280.101 189.894 280.135 190.231 280.191C190.857 280.296 191.863 280.405 193.222 280.502C195.91 280.692 199.68 280.813 203.881 280.813V287.362C199.576 287.362 195.645 287.238 192.759 287.033C191.331 286.932 190.081 286.806 189.148 286.649C188.706 286.575 188.188 286.471 187.72 286.308C187.507 286.235 187.1 286.081 186.684 285.79C186.393 285.587 185.205 284.696 185.205 282.995H191.754ZM203.881 280.813C208.082 280.813 211.852 280.692 214.54 280.502C215.899 280.405 216.905 280.296 217.53 280.191C217.868 280.135 217.955 280.101 217.897 280.122C217.889 280.124 217.639 280.205 217.328 280.423C217.142 280.552 216.008 281.369 216.008 282.995H222.557C222.557 284.696 221.369 285.587 221.078 285.79C220.662 286.081 220.255 286.235 220.042 286.308C219.574 286.471 219.056 286.575 218.614 286.649C217.681 286.806 216.431 286.932 215.003 287.033C212.117 287.238 208.186 287.362 203.881 287.362V280.813Z" fill="#D9D9D9" mask="url(#path-11-inside-1_202_241)"/>
<path d="M188.847 283.222H218.183" stroke="#D9D9D9" stroke-width="3.27413"/>
<g clip-path="url(#clip0_202_241)">
<path d="M200.235 268.859C198.697 268.294 196.409 268.519 194.981 269.494C193.553 270.468 192.427 272.126 191.809 274.162C191.192 276.198 191.124 278.476 191.619 280.576C192.115 282.676 193.139 284.456 194.505 285.59C195.87 286.724 197.485 287.135 199.051 286.747C200.617 286.359 202.03 285.198 203.029 283.479C204.028 281.759 204.546 279.596 204.488 277.388C204.43 275.18 203.8 273.075 202.714 271.461L199.359 273.308L200.235 268.859Z" fill="#D9D9D9"/>
</g>
<path d="M168.189 282.942H168.234L168.279 282.944C177.023 283.423 183.851 282.99 188.447 282.194C190.756 281.794 192.433 281.314 193.491 280.85C193.507 280.843 193.523 280.836 193.538 280.829C193.467 280.804 193.392 280.779 193.313 280.753C192.043 280.335 190.119 279.933 187.637 279.588C182.698 278.9 175.821 278.469 168.189 278.469C160.558 278.469 153.681 278.9 148.742 279.588C146.354 279.92 144.482 280.304 143.212 280.705C144.482 281.106 146.354 281.49 148.742 281.823C153.681 282.51 160.558 282.942 168.189 282.942ZM194.509 280.247C194.508 280.247 194.505 280.251 194.499 280.259C194.506 280.251 194.509 280.247 194.509 280.247ZM194.586 281.322C194.6 281.336 194.608 281.343 194.609 281.343C194.61 281.343 194.604 281.336 194.586 281.322ZM141.77 281.343C141.771 281.343 141.779 281.336 141.793 281.322C141.775 281.336 141.769 281.343 141.77 281.343ZM141.793 280.089C141.779 280.074 141.771 280.067 141.77 280.067C141.769 280.067 141.775 280.075 141.793 280.089Z" fill="#D9D9D9" stroke="#D9D9D9" stroke-width="3.27413"/>
<path d="M142.455 282.683H193.81" stroke="#D9D9D9" stroke-width="3.27413"/>
<path d="M97.7522 319.578V317.716H102.608V319.578C102.608 323.24 105.866 325.142 109.69 325.244V329.493C105.846 329.27 101.718 327.753 100.18 325.264C98.6425 327.753 94.5147 329.27 90.6702 329.493V325.244C94.4945 325.142 97.7522 323.24 97.7522 319.578ZM90.6702 332.123H97.8534V328.643H102.507V332.123H109.69V336.17H90.6702V332.123ZM111.715 325.486H130.735V328.522H123.552V329.412H127.194C129.622 329.412 130.937 330.565 130.937 332.791C130.937 335.017 129.622 336.17 127.194 336.17H115.256C112.828 336.17 111.512 335.017 111.512 332.791C111.512 330.565 112.828 329.412 115.256 329.412H118.898V328.522H111.715V325.486ZM111.715 317.716H130.735V320.752H124.523C125.616 321.601 127.983 321.925 130.735 321.966V325.102C126.89 325.102 123.107 324.535 121.225 322.694C119.343 324.535 115.559 325.102 111.715 325.102V321.966C114.467 321.925 116.814 321.601 117.927 320.752H111.715V317.716ZM116.187 332.791C116.187 333.095 116.369 333.236 116.571 333.236H125.879C126.081 333.236 126.263 333.095 126.263 332.791C126.263 332.488 126.081 332.346 125.879 332.346H116.571C116.369 332.346 116.187 332.488 116.187 332.791ZM137.11 329.695C134.479 329.695 132.962 327.955 132.962 325.932C132.962 323.908 134.479 322.168 137.11 322.168H140.833C143.463 322.168 144.981 323.908 144.981 325.932C144.981 327.955 143.463 329.695 140.833 329.695H137.11ZM133.164 330.302H137.818V331.516C137.818 332.245 138.303 332.73 139.032 332.73H150.768V336.17H137.615C134.945 336.17 133.164 334.39 133.164 331.719V330.302ZM145.912 330.707V317.716H150.565V322.269H152.387V326.316H150.565V330.707H145.912ZM132.962 318.121H136.644V317.109H141.298V318.121H144.981V321.561H132.962V318.121ZM137.636 325.932C137.636 326.276 137.879 326.458 138.223 326.458H139.72C140.064 326.458 140.307 326.276 140.307 325.932C140.307 325.588 140.064 325.406 139.72 325.406H138.223C137.879 325.406 137.636 325.588 137.636 325.932ZM158.67 317.716H171.093V321.763H167.208V325.992C167.208 329.473 168.807 331.354 171.093 331.719V336.17C168.524 335.887 166.136 334.41 164.881 332.548C163.667 334.41 161.239 335.887 158.67 336.17V331.719C160.956 331.213 162.555 329.473 162.555 325.992V321.763H158.67V317.716ZM172.429 336.17V317.716H177.083V336.17H172.429ZM193.473 330.1V317.716H198.127V330.1H193.473ZM179.916 329.088H184.57V330.909C184.57 331.638 185.056 332.123 185.784 332.123H198.33V336.17H184.368C181.697 336.17 179.916 334.39 179.916 331.719V329.088ZM184.671 328.076C181.232 328.076 179.512 325.729 179.512 322.896C179.512 320.064 181.232 317.716 184.671 317.716H186.938C190.378 317.716 192.098 320.064 192.098 322.896C192.098 325.729 190.378 328.076 186.938 328.076H184.671ZM184.186 322.896C184.186 323.868 184.651 324.434 185.44 324.434H186.169C186.958 324.434 187.423 323.868 187.423 322.896C187.423 321.925 186.958 321.359 186.169 321.359H185.44C184.651 321.359 184.186 321.925 184.186 322.896ZM214.579 317.716V336.17H210.532V328.36H209.702V331.82C209.702 334.551 208.225 336.373 205.23 336.373C202.236 336.373 200.759 334.551 200.759 331.82V322.067C200.759 319.335 202.236 317.514 205.23 317.514C208.225 317.514 209.702 319.335 209.702 322.067V324.515H210.532V317.716H214.579ZM219.374 336.17H215.327V317.716H219.374V336.17ZM205.23 332.528C205.534 332.528 205.655 332.326 205.655 331.982V321.905C205.655 321.561 205.534 321.359 205.23 321.359C204.927 321.359 204.805 321.561 204.805 321.905V331.982C204.805 332.326 204.927 332.528 205.23 332.528ZM221.601 336.17V331.719C223.503 331.395 225.688 329.27 225.688 325.79V321.763H221.803V317.716H230.14V324.515H231.07V317.716H235.32V336.17H231.07V328.36H229.877C228.946 332.791 225.607 335.644 221.601 336.17ZM240.419 336.17H236.17V317.716H240.419V336.17ZM247.106 333.681C247.106 331.86 248.32 331.193 250.142 331.193H261.554C261.756 331.193 261.877 331.132 261.877 330.95C261.877 330.768 261.756 330.707 261.554 330.707H247.309V328.279H254.492V327.672H247.309V324.839H266.329V327.672H259.146V328.279H263.496C265.317 328.279 266.531 328.926 266.531 330.747C266.531 332.569 265.317 333.216 263.496 333.216H252.084C251.882 333.216 251.76 333.297 251.76 333.479C251.76 333.661 251.882 333.742 252.084 333.742H266.329V336.17H250.142C248.32 336.17 247.106 335.503 247.106 333.681ZM247.309 317.716H266.329V320.549H260.421C261.614 321.237 263.8 321.521 266.329 321.561V324.495C262.485 324.495 258.701 323.928 256.819 322.289C254.937 323.928 251.153 324.495 247.309 324.495V321.561C249.818 321.521 252.003 321.237 253.197 320.549H247.309V317.716ZM85.4333 361.088H90.0872V362.909C90.0872 363.638 90.5729 364.123 91.3013 364.123H103.847V368.17H89.8849C87.214 368.17 85.4333 366.39 85.4333 363.719V361.088ZM85.4333 360.279V356.03C87.7401 355.908 89.0148 353.986 89.0148 351.315V349.716H93.6687V351.315C93.6687 353.986 94.9435 355.706 97.2502 355.827V360.076C94.8828 359.996 92.5558 358.721 91.3418 356.859C90.1277 358.721 87.8008 360.198 85.4333 360.279ZM96.1576 350.951H98.9904V349.716H103.644V362.1H98.9904V354.998H96.1576V350.951ZM105.871 365.681C105.871 363.86 107.085 363.193 108.906 363.193H120.318C120.521 363.193 120.642 363.132 120.642 362.95C120.642 362.768 120.521 362.707 120.318 362.707H106.073V360.279H113.256V359.672H106.073V356.839H125.094V359.672H117.91V360.279H122.261C124.082 360.279 125.296 360.926 125.296 362.747C125.296 364.569 124.082 365.216 122.261 365.216H110.849C110.646 365.216 110.525 365.297 110.525 365.479C110.525 365.661 110.646 365.742 110.849 365.742H125.094V368.17H108.906C107.085 368.17 105.871 367.503 105.871 365.681ZM106.073 349.716H125.094V356.272H109.311C107.449 356.272 106.073 354.896 106.073 353.035V349.716ZM110.727 352.549V352.934C110.727 353.257 110.909 353.44 111.233 353.44H120.44V352.549H110.727ZM141.079 368.17V349.716H145.733V368.17H141.079ZM133.411 364.326C134.119 364.326 134.645 363.82 134.645 363.01V354.876C134.645 354.067 134.119 353.561 133.411 353.561C132.702 353.561 132.176 354.067 132.176 354.876V363.01C132.176 363.82 132.702 364.326 133.411 364.326ZM127.522 362.808V355.079C127.522 351.74 129.809 349.514 133.411 349.514C137.012 349.514 139.299 351.74 139.299 355.079V362.808C139.299 366.147 137.012 368.373 133.411 368.373C129.809 368.373 127.522 366.147 127.522 362.808ZM171.846 362.302H167.192V353.763H152.826V349.716H171.846V362.302ZM152.826 364.123H157.985V357.203H162.639V364.123H171.846V368.17H152.826V364.123ZM187.832 362.1V349.716H192.486V362.1H187.832ZM174.275 361.088H178.929V362.909C178.929 363.638 179.414 364.123 180.143 364.123H192.688V368.17H178.726C176.056 368.17 174.275 366.39 174.275 363.719V361.088ZM174.275 349.716H186.051V360.076H177.715C175.448 360.076 174.275 358.903 174.275 356.637V349.716ZM178.929 355.827C178.929 356.151 179.212 356.434 179.536 356.434H181.397V353.359H178.929V355.827ZM195.117 358.923H198.982V358.013H198.557C196.088 358.013 195.117 357.041 195.117 355.18V349.716H207.096V353.055H199.771V353.865C199.771 354.391 200.054 354.674 200.58 354.674H207.096V358.013H203.636V358.923H208.876V349.716H213.53V363.071H208.876V362.363H195.117V358.923ZM195.117 362.97H199.771V363.921C199.771 364.447 200.054 364.73 200.58 364.73H213.733V368.17H198.962C196.291 368.17 195.117 366.997 195.117 364.326V362.97ZM222.232 364.123H229.112V349.716H233.766V356.414H235.587V360.461H233.766V368.17H220.816C218.145 368.17 216.364 366.39 216.364 363.719V349.716H227.736V353.763H221.018V362.909C221.018 363.638 221.504 364.123 222.232 364.123ZM237.409 349.716H249.185V350.85H250.966V349.716H255.619V362.1H250.966V358.943H249.185V360.076H240.848C238.582 360.076 237.409 358.903 237.409 356.637V349.716ZM237.409 361.088H242.062V362.909C242.062 363.638 242.548 364.123 243.276 364.123H255.822V368.17H241.86C239.189 368.17 237.409 366.39 237.409 363.719V361.088ZM242.062 355.827C242.062 356.151 242.346 356.434 242.669 356.434H244.531V353.359H242.062V355.827ZM249.185 354.289V355.504H250.966V354.289H249.185ZM262.419 355.483H257.441C257.441 351.942 259.829 349.716 262.803 349.716H267.215C270.189 349.716 272.577 351.922 272.577 355.261C272.577 358.68 270.189 360.967 267.215 360.967H267.012V362.464H262.035V359.631C262.035 357.75 263.269 356.92 264.948 356.92H265.778C266.871 356.92 267.599 356.353 267.599 355.483C267.599 354.532 266.871 353.885 265.778 353.885H264.24C263.147 353.885 262.419 354.532 262.419 355.483ZM262.237 365.904C262.237 364.488 263.33 363.395 264.746 363.395C266.122 363.395 267.215 364.488 267.215 365.904C267.215 367.28 266.122 368.373 264.746 368.373C263.33 368.373 262.237 367.28 262.237 365.904Z" fill="black"/>
<path d="M180.216 271.051H130.39C127.504 250.547 148.73 252.048 162.776 256.451V215.537H174.563L180.216 271.051Z" fill="#1D1D1D"/>
<path d="M166.959 258.31C165.857 257.897 164.025 256.843 162.776 256.451M162.776 256.451C148.73 252.048 127.504 250.547 130.39 271.051H180.216L174.563 215.537H162.776V256.451Z" stroke="#1D1D1D" stroke-width="4.51853"/>
<path d="M189.51 271.051H233.526C236.413 250.547 222.287 252.048 208.241 256.451L195.331 215.537H183.544L189.51 271.051Z" fill="#1D1D1D"/>
<path d="M204.058 258.31C205.16 257.897 206.992 256.843 208.241 256.451M208.241 256.451C222.287 252.048 236.413 250.547 233.526 271.051H189.51L183.544 215.537H195.331L208.241 256.451Z" stroke="#1D1D1D" stroke-width="4.51853"/>
<path fill-rule="evenodd" clip-rule="evenodd" d="M191.77 130.653C191.77 130.653 181.442 135.495 172.728 132.59L181.716 102.395C183.319 94.6411 192.714 91.5299 198.627 96.7942L211.35 108.12C217.263 113.385 215.26 123.077 207.745 125.566L191.77 130.653ZM198.898 117.466L188.346 120.961L190.595 110.075C191.106 107.602 194.103 106.609 195.989 108.289L200.048 111.902C201.934 113.581 201.295 116.672 198.898 117.466Z" fill="#1D1D1D"/>
<rect x="127.116" y="155.079" width="49.2655" height="62.1756" rx="1.60045" fill="#1D1D1D" stroke="#1D1D1D" stroke-width="0.438316"/>
<rect x="123.243" y="130.55" width="53.1385" height="20.2178" rx="1.60045" fill="#1D1D1D" stroke="#1D1D1D" stroke-width="0.438316"/>
<rect x="181.338" y="155.079" width="49.2655" height="62.1756" rx="1.60045" fill="#1D1D1D" stroke="#1D1D1D" stroke-width="0.438316"/>
<rect x="181.338" y="130.55" width="53.1385" height="20.2178" rx="1.60045" fill="#1D1D1D" stroke="#1D1D1D" stroke-width="0.438316"/>
<path d="M184.992 133.235C177.569 134.204 165.95 131.299 162.482 130.117C159.239 129.011 150.419 125.747 149.289 125.329C149.208 125.299 149.127 125.27 149.045 125.242C141.631 122.688 139.683 113.074 145.564 107.839L158.287 96.5129C164.2 91.2485 173.595 94.3598 175.197 102.113L179.369 124.341C179.369 124.341 180.151 131.299 184.992 133.235Z" fill="#1D1D1D"/>
<path d="M216.299 160.101C216.299 169.002 210.029 175.839 202.731 175.839C195.433 175.839 189.162 169.002 189.162 160.101C189.162 151.201 195.433 144.364 202.731 144.364C210.029 144.364 216.299 151.201 216.299 160.101Z" fill="white" stroke="#1D1D1D" stroke-width="3.22752"/>
<path d="M187.91 156.487H216.829" stroke="#1D1D1D" stroke-width="3.22752"/>
<g clip-path="url(#clip1_202_241)">
<path d="M199.137 170.645C197.621 171.202 195.365 170.98 193.958 170.02C192.55 169.059 191.44 167.425 190.831 165.418C190.222 163.411 190.155 161.165 190.643 159.095C191.132 157.026 192.142 155.27 193.488 154.152C194.834 153.035 196.425 152.63 197.969 153.012C199.513 153.395 200.906 154.539 201.891 156.234C202.875 157.929 203.386 160.061 203.329 162.238C203.272 164.414 202.651 166.489 201.58 168.08L198.273 166.26L199.137 170.645Z" fill="#1D1D1D"/>
</g>
<path d="M193.087 160.101C193.087 169.002 186.816 175.839 179.518 175.839C172.22 175.839 165.95 169.002 165.95 160.101C165.95 151.201 172.22 144.364 179.518 144.364C186.816 144.364 193.087 151.201 193.087 160.101Z" fill="white" stroke="#1D1D1D" stroke-width="3.22752"/>
<path d="M164.698 156.487H193.616" stroke="#1D1D1D" stroke-width="3.22752"/>
<g clip-path="url(#clip2_202_241)">
<path d="M175.925 170.645C174.409 171.202 172.153 170.98 170.746 170.02C169.338 169.059 168.228 167.425 167.619 165.418C167.01 163.411 166.943 161.165 167.432 159.095C167.92 157.026 168.93 155.27 170.276 154.152C171.622 153.035 173.213 152.63 174.757 153.012C176.301 153.395 177.694 154.539 178.679 156.234C179.663 157.929 180.174 160.061 180.117 162.238C180.06 164.414 179.439 166.489 178.368 168.08L175.061 166.26L175.925 170.645Z" fill="#1D1D1D"/>
</g>
<defs>
<clipPath id="clip0_202_241">
<rect width="14.6681" height="0.956197" fill="white" transform="matrix(1 0 0 -1 189.825 283.222)"/>
</clipPath>
<clipPath id="clip1_202_241">
<rect width="14.4593" height="15.1823" fill="white" transform="translate(188.874 156.487)"/>
</clipPath>
<clipPath id="clip2_202_241">
<rect width="14.4593" height="15.1823" fill="white" transform="translate(166.385 156.487)"/>
</clipPath>
</defs>
</svg>
