<svg width="360" height="451" viewBox="0 0 360 451" fill="none" xmlns="http://www.w3.org/2000/svg">
<rect width="360" height="451" fill="white"/>
<path d="M85.0974 385.132C85.0974 370.424 97.0212 358.5 111.73 358.5H217.867C230.57 358.5 240.867 368.797 240.867 381.5C240.867 394.203 230.57 404.5 217.867 404.5H85.0974H70L85.0974 390.662V385.132Z" fill="#888888"/>
<path d="M112.511 380.711V381.625H110.296V383.57C111.269 383.523 112.247 383.459 113.167 383.359L113.249 384.18C110.941 384.531 108.444 384.555 106.452 384.566L106.312 383.641C107.196 383.641 108.175 383.635 109.183 383.605V381.625H107.073V377.242H112.464V378.145H108.175V380.711H112.511ZM114.937 376.27V386.793H113.823V376.27H114.937ZM125.408 376.27V386.77H124.353V376.27H125.408ZM123.193 376.539V386.254H122.138V381.379H120.087C119.46 382.598 118.464 383.664 116.982 384.531L116.349 383.734C118.576 382.41 119.648 380.646 119.841 378.484H116.841V377.57H120.943C120.937 378.596 120.796 379.574 120.474 380.488H122.138V376.539H123.193ZM138.158 376.27V384.145H137.103V376.27H138.158ZM136.072 376.457V383.84H135.006V379.762H133.471V378.848H135.006V376.457H136.072ZM138.463 385.645V386.547H131.197V383.184H132.299V385.645H138.463ZM132.381 378.496C132.381 379.727 133.072 380.969 134.408 381.555L133.787 382.41C132.861 381.988 132.211 381.232 131.865 380.324C131.478 381.338 130.781 382.211 129.803 382.68L129.181 381.824C130.564 381.168 131.303 379.738 131.303 378.496V376.996H132.381V378.496ZM144.668 377.758C144.668 379.469 146.496 381.086 148.512 381.449L147.996 382.375C146.32 382.012 144.773 380.91 144.094 379.434C143.402 380.898 141.861 382 140.18 382.375L139.688 381.449C141.68 381.074 143.496 379.469 143.496 377.758V376.961H144.668V377.758ZM148.945 384.461V385.387H139.336V384.461H148.945ZM153.112 383.207C153.112 384.109 153.557 385.064 154.506 385.633C155.473 385.018 155.948 384.01 155.948 383.207V382.703H157.037V383.207C157.037 384.297 157.752 385.352 159.123 385.797L158.573 386.617C157.535 386.26 156.832 385.562 156.463 384.695C156.129 385.545 155.502 386.312 154.541 386.711C153.533 386.33 152.895 385.586 152.573 384.73C152.192 385.557 151.5 386.254 150.51 386.617L149.948 385.797C151.295 385.316 152.022 384.227 152.033 383.207V382.703H153.112V383.207ZM158.174 376.281V382.258H157.061V376.281H158.174ZM152.479 376.855C154.084 376.855 155.268 377.875 155.268 379.34C155.268 380.793 154.084 381.801 152.479 381.801C150.873 381.801 149.678 380.793 149.678 379.34C149.678 377.875 150.873 376.855 152.479 376.855ZM152.479 377.805C151.483 377.793 150.768 378.414 150.768 379.34C150.768 380.254 151.483 380.875 152.479 380.875C153.463 380.875 154.178 380.254 154.178 379.34C154.178 378.414 153.463 377.793 152.479 377.805ZM167.778 376.27V380.336H169.465V381.25H167.778V386.793H166.665V376.27H167.778ZM164.954 377.277V378.18H161.157V383.254C162.92 383.248 164.245 383.172 165.739 382.902L165.879 383.84C164.239 384.133 162.844 384.191 160.887 384.18H160.043V377.277H164.954ZM170.925 385.855C170.468 385.855 170.081 385.48 170.093 385.023C170.081 384.566 170.468 384.191 170.925 384.191C171.37 384.191 171.757 384.566 171.757 385.023C171.757 385.48 171.37 385.855 170.925 385.855ZM173.849 385.855C173.392 385.855 173.005 385.48 173.017 385.023C173.005 384.566 173.392 384.191 173.849 384.191C174.294 384.191 174.681 384.566 174.681 385.023C174.681 385.48 174.294 385.855 173.849 385.855ZM176.773 385.855C176.316 385.855 175.929 385.48 175.941 385.023C175.929 384.566 176.316 384.191 176.773 384.191C177.218 384.191 177.605 384.566 177.605 385.023C177.605 385.48 177.218 385.855 176.773 385.855ZM189.547 377.277V378.309C189.547 379.609 189.547 381.062 189.148 383.207L188.023 383.09C188.433 381.062 188.433 379.574 188.433 378.309V378.18H182.058V377.277H189.547ZM190.625 384.426V385.352H181.051V384.426H184.695V380.723H185.797V384.426H190.625ZM196.49 377.312V384.133H191.58V377.312H196.49ZM192.67 378.191V383.23H195.389V378.191H192.67ZM199.361 376.27V380.383H201.049V381.32H199.361V386.77H198.248V376.27H199.361ZM210.09 376.281V386.77H208.965V384.262H206.645V383.418H208.965V376.281H210.09ZM201.266 381.742C203.258 381.73 205.906 381.719 208.203 381.402L208.262 382.223C207.266 382.398 206.229 382.504 205.215 382.562V386.441H204.102V382.621C203.141 382.662 202.227 382.668 201.418 382.668L201.266 381.742ZM204.723 376.762C206.27 376.762 207.383 377.617 207.383 378.859C207.383 380.125 206.27 380.945 204.723 380.945C203.141 380.945 202.039 380.125 202.039 378.859C202.039 377.617 203.141 376.762 204.723 376.762ZM204.723 377.617C203.75 377.617 203.082 378.121 203.094 378.859C203.082 379.609 203.75 380.09 204.723 380.09C205.66 380.09 206.328 379.609 206.328 378.859C206.328 378.121 205.66 377.617 204.723 377.617ZM213.377 377.289L213.272 383.324H212.112L212.006 377.289H213.377ZM212.698 385.855C212.241 385.855 211.854 385.48 211.866 385.023C211.854 384.566 212.241 384.191 212.698 384.191C213.143 384.191 213.53 384.566 213.53 385.023C213.53 385.48 213.143 385.855 212.698 385.855ZM216.419 377.289L216.313 383.324H215.153L215.048 377.289H216.419ZM215.739 385.855C215.282 385.855 214.895 385.48 214.907 385.023C214.895 384.566 215.282 384.191 215.739 384.191C216.184 384.191 216.571 384.566 216.571 385.023C216.571 385.48 216.184 385.855 215.739 385.855ZM219.46 377.289L219.354 383.324H218.194L218.089 377.289H219.46ZM218.78 385.855C218.323 385.855 217.936 385.48 217.948 385.023C217.936 384.566 218.323 384.191 218.78 384.191C219.226 384.191 219.612 384.566 219.612 385.023C219.612 385.48 219.226 385.855 218.78 385.855Z" fill="white"/>
<path d="M51.6509 267.206C51.6509 253.876 62.4568 243.07 75.7865 243.07H261.535C274.238 243.07 284.535 253.368 284.535 266.07C284.535 278.773 274.238 289.07 261.535 289.07H51.6509H38.5352L51.6509 276.977V267.206Z" fill="#888888"/>
<path d="M80.2687 260.996V266.762H79.1671V264.676H77.4562V263.773H79.1671V260.996H80.2687ZM80.2687 267.242V269.68H74.5382V270.547H80.5616V271.391H73.4249V268.871H79.1671V268.074H73.4015V267.242H80.2687ZM77.6905 261.863V262.719H71.5382V261.863H74.0695V260.867H75.171V261.863H77.6905ZM74.6202 263.164C76.0616 263.164 77.0812 263.844 77.0812 264.887C77.0812 265.941 76.0616 266.621 74.6202 266.609C73.1671 266.621 72.1476 265.941 72.1476 264.887C72.1476 263.844 73.1671 263.164 74.6202 263.164ZM74.6202 263.984C73.7765 263.973 73.214 264.336 73.214 264.887C73.214 265.449 73.7765 265.812 74.6202 265.812C75.4523 265.812 76.0148 265.449 76.0148 264.887C76.0148 264.336 75.4523 263.973 74.6202 263.984ZM93.3355 260.996V271.496H92.2691V266.117H90.9215V270.957H89.8785V261.207H90.9215V265.203H92.2691V260.996H93.3355ZM85.9527 262.238V267.84C86.9254 267.834 87.9859 267.758 89.1754 267.523L89.2926 268.496C87.8512 268.754 86.6441 268.824 85.5191 268.824H84.8395V262.238H85.9527ZM102.658 260.996V265.18H104.287V266.105H102.658V271.484H101.545V260.996H102.658ZM99.9159 262.098C99.9041 265.133 98.5682 267.84 95.1112 269.551L94.4901 268.684C97.1209 267.371 98.5506 265.473 98.7791 263.023H95.0174V262.098H99.9159ZM115.994 260.996V271.52H114.881V260.996H115.994ZM110.381 261.781C111.94 261.781 113.088 263.211 113.088 265.461C113.088 267.723 111.94 269.152 110.381 269.152C108.799 269.152 107.662 267.723 107.662 265.461C107.662 263.211 108.799 261.781 110.381 261.781ZM110.381 262.777C109.409 262.777 108.741 263.809 108.741 265.461C108.741 267.125 109.409 268.156 110.381 268.156C111.342 268.156 112.01 267.125 112.01 265.461C112.01 263.809 111.342 262.777 110.381 262.777ZM126.172 260.996V271.496H125.071V266.07H122.715V265.156H125.071V260.996H126.172ZM122.751 262.121C122.739 265.168 121.555 267.781 117.993 269.551L117.407 268.672C120.19 267.312 121.426 265.42 121.626 263.012H117.876V262.121H122.751ZM138.501 260.996V263.48H140.024V264.406H138.501V267.125H137.388V260.996H138.501ZM131.751 261.594V263.117H134.505V261.594H135.606V266.516H130.661V261.594H131.751ZM131.751 265.637H134.505V263.996H131.751V265.637ZM138.583 267.676V268.566H132.923V270.465H138.771V271.344H131.81V267.676H138.583ZM148.878 262.004V263.035C148.878 264.336 148.878 265.789 148.48 267.934L147.355 267.816C147.765 265.789 147.765 264.301 147.765 263.035V262.906H141.39V262.004H148.878ZM149.956 269.152V270.078H140.382V269.152H144.027V265.449H145.128V269.152H149.956ZM161.91 261.008V266.832H160.797V261.008H161.91ZM157.023 262.402C157.011 263.797 158.031 265.074 159.636 265.566L159.097 266.445C157.861 266.047 156.941 265.221 156.461 264.148C155.986 265.303 155.049 266.211 153.789 266.633L153.238 265.754C154.879 265.215 155.886 263.855 155.886 262.402V261.383H157.023V262.402ZM161.98 267.406V268.297H160.597V270.465H162.086V271.367H154.773V270.465H156.273V268.297H154.867V267.406H161.98ZM157.375 270.465H159.496V268.297H157.375V270.465ZM172.908 266.48V267.371H163.334V266.48H172.908ZM171.83 270.371V271.273H164.541V268.227H165.666V270.371H171.83ZM168.115 261.348C170.389 261.336 171.865 262.133 171.865 263.445C171.865 264.77 170.389 265.566 168.115 265.578C165.83 265.566 164.365 264.77 164.365 263.445C164.365 262.133 165.83 261.336 168.115 261.348ZM168.115 262.238C166.51 262.238 165.502 262.695 165.514 263.445C165.502 264.219 166.51 264.664 168.115 264.664C169.721 264.664 170.717 264.219 170.717 263.445C170.717 262.695 169.721 262.238 168.115 262.238ZM182.207 260.996V271.496H181.106V266.07H178.75V265.156H181.106V260.996H182.207ZM178.785 262.121C178.774 265.168 177.59 267.781 174.028 269.551L173.442 268.672C176.225 267.312 177.461 265.42 177.66 263.012H173.91V262.121H178.785ZM189.134 261.781C190.557 261.781 191.6 262.988 191.77 264.934H193.938V260.996H195.04V271.52H193.938V265.836H191.782C191.659 267.881 190.592 269.152 189.134 269.152C187.563 269.152 186.462 267.723 186.473 265.461C186.462 263.211 187.563 261.781 189.134 261.781ZM189.134 262.777C188.184 262.777 187.528 263.809 187.528 265.461C187.528 267.125 188.184 268.156 189.134 268.156C190.083 268.156 190.739 267.125 190.739 265.461C190.739 263.809 190.083 262.777 189.134 262.777ZM205.452 267.207V268.062H197.847V267.207H201.104V266.258H202.206V267.207H205.452ZM201.632 268.496C203.53 268.508 204.655 269.035 204.655 269.984C204.655 270.969 203.53 271.484 201.632 271.496C199.733 271.484 198.608 270.969 198.608 269.984C198.608 269.035 199.733 268.508 201.632 268.496ZM201.632 269.281C200.46 269.293 199.78 269.527 199.78 269.984C199.78 270.465 200.46 270.711 201.632 270.711C202.792 270.711 203.46 270.465 203.472 269.984C203.46 269.527 202.792 269.293 201.632 269.281ZM199.347 261.488V262.367H197.753V264.98C198.274 264.963 198.843 264.91 199.476 264.77L199.569 265.648C198.608 265.859 197.87 265.871 197.144 265.859H196.675V261.488H199.347ZM202.839 261.488V262.367H200.999V264.98C201.866 264.975 202.481 264.922 203.19 264.758L203.296 265.648C202.405 265.848 201.667 265.871 200.436 265.859H199.909V261.488H202.839ZM205.265 260.996V266.586H204.175V263.996H202.417V263.129H204.175V260.996H205.265ZM215.571 260.996V271.496H214.517V260.996H215.571ZM213.357 261.266V270.98H212.302V266.105H210.251C209.624 267.324 208.628 268.391 207.146 269.258L206.513 268.461C208.739 267.137 209.812 265.373 210.005 263.211H207.005V262.297H211.107C211.101 263.322 210.96 264.301 210.638 265.215H212.302V261.266H213.357ZM227.619 260.996V263.188H229.142V264.113H227.619V266.305H226.506V260.996H227.619ZM227.619 266.785V269.445H221.947V270.477H227.982V271.367H220.857V268.613H226.517V267.652H220.834V266.785H227.619ZM222.287 261.359C223.881 261.359 225.041 262.32 225.041 263.703C225.041 265.086 223.881 266.047 222.287 266.047C220.693 266.047 219.521 265.086 219.533 263.703C219.521 262.32 220.693 261.359 222.287 261.359ZM222.287 262.273C221.314 262.273 220.611 262.848 220.611 263.703C220.611 264.559 221.314 265.156 222.287 265.156C223.248 265.156 223.963 264.559 223.963 263.703C223.963 262.848 223.248 262.273 222.287 262.273ZM232.453 261.594C234.059 261.594 235.242 262.602 235.254 264.09C235.242 265.555 234.059 266.574 232.453 266.574C230.848 266.574 229.652 265.555 229.664 264.09C229.652 262.602 230.848 261.594 232.453 261.594ZM232.453 262.531C231.469 262.531 230.742 263.164 230.754 264.09C230.742 265.027 231.469 265.637 232.453 265.648C233.437 265.637 234.164 265.027 234.164 264.09C234.164 263.164 233.437 262.531 232.453 262.531ZM237.75 260.996V263.434H239.273V264.348H237.75V266.938H236.637V260.996H237.75ZM233.027 267.922C233.027 268.83 233.473 269.785 234.434 270.359C235.389 269.738 235.851 268.719 235.851 267.922V267.395H236.941V267.922C236.941 269.023 237.656 270.078 239.027 270.535L238.465 271.367C237.445 270.992 236.742 270.289 236.391 269.422C236.051 270.271 235.418 271.062 234.445 271.461C233.443 271.074 232.81 270.33 232.488 269.469C232.107 270.295 231.416 270.998 230.437 271.367L229.887 270.535C231.223 270.055 231.961 268.941 231.961 267.922V267.395H233.027V267.922ZM242.479 261.781C243.902 261.781 244.945 262.988 245.115 264.934H247.283V260.996H248.385V271.52H247.283V265.836H245.127C245.004 267.881 243.938 269.152 242.479 269.152C240.908 269.152 239.807 267.723 239.819 265.461C239.807 263.211 240.908 261.781 242.479 261.781ZM242.479 262.777C241.529 262.777 240.873 263.809 240.873 265.461C240.873 267.125 241.529 268.156 242.479 268.156C243.428 268.156 244.084 267.125 244.084 265.461C244.084 263.809 243.428 262.777 242.479 262.777ZM251.485 267.98C251.496 266.445 251.954 265.977 252.727 265.496C253.219 265.191 253.594 264.77 253.594 264.148C253.594 263.41 253.032 262.953 252.329 262.953C251.696 262.953 251.086 263.34 251.028 264.207H249.762C249.809 262.719 250.934 261.898 252.329 261.898C253.852 261.898 254.871 262.812 254.871 264.148C254.871 265.086 254.426 265.719 253.676 266.176C252.973 266.598 252.704 267.031 252.68 267.98V268.051H251.485V267.98ZM252.129 270.582C251.672 270.582 251.286 270.207 251.297 269.75C251.286 269.293 251.672 268.918 252.129 268.918C252.575 268.918 252.961 269.293 252.961 269.75C252.961 270.207 252.575 270.582 252.129 270.582ZM257.233 267.98C257.245 266.445 257.702 265.977 258.475 265.496C258.967 265.191 259.342 264.77 259.342 264.148C259.342 263.41 258.78 262.953 258.077 262.953C257.444 262.953 256.835 263.34 256.776 264.207H255.51C255.557 262.719 256.682 261.898 258.077 261.898C259.6 261.898 260.62 262.812 260.62 264.148C260.62 265.086 260.174 265.719 259.424 266.176C258.721 266.598 258.452 267.031 258.428 267.98V268.051H257.233V267.98ZM257.878 270.582C257.421 270.582 257.034 270.207 257.046 269.75C257.034 269.293 257.421 268.918 257.878 268.918C258.323 268.918 258.71 269.293 258.71 269.75C258.71 270.207 258.323 270.582 257.878 270.582ZM262.981 267.98C262.993 266.445 263.45 265.977 264.224 265.496C264.716 265.191 265.091 264.77 265.091 264.148C265.091 263.41 264.528 262.953 263.825 262.953C263.192 262.953 262.583 263.34 262.524 264.207H261.259C261.306 262.719 262.431 261.898 263.825 261.898C265.349 261.898 266.368 262.812 266.368 264.148C266.368 265.086 265.923 265.719 265.173 266.176C264.47 266.598 264.2 267.031 264.177 267.98V268.051H262.981V267.98ZM263.626 270.582C263.169 270.582 262.782 270.207 262.794 269.75C262.782 269.293 263.169 268.918 263.626 268.918C264.071 268.918 264.458 269.293 264.458 269.75C264.458 270.207 264.071 270.582 263.626 270.582Z" fill="white"/>
<path d="M299.044 327.625C299.044 312.916 287.12 300.992 272.411 300.992H197.281C184.578 300.992 174.281 311.29 174.281 323.992C174.281 336.695 184.578 346.992 197.281 346.992H299.044H310.281L299.044 334.898V327.625Z" fill="#1D1D1D"/>
<path d="M200.734 320.968C200.734 321.771 200.898 322.832 201.542 323.605C202.181 322.837 202.339 321.8 202.351 320.968V320.851H201.741V319.796H204.741V320.851H203.581V320.968C203.581 322.117 203.991 323.417 205.21 324.05L204.507 324.988C203.728 324.578 203.247 323.886 202.972 323.089C202.726 323.904 202.292 324.642 201.531 325.093C200.792 324.642 200.359 323.904 200.113 323.101C199.837 323.898 199.357 324.583 198.589 324.988L197.886 324.05C199.081 323.417 199.515 322.093 199.515 320.968V320.851H198.296V319.796H201.355V320.851H200.734V320.968ZM206.71 319.058V321.683H207.882V322.785H206.71V325.492H205.409V319.058H206.71ZM203.148 325.609C205.398 325.609 206.804 326.347 206.804 327.625C206.804 328.914 205.398 329.64 203.148 329.64C200.898 329.64 199.515 328.914 199.515 327.625C199.515 326.347 200.898 325.609 203.148 325.609ZM203.148 326.64C201.659 326.64 200.827 326.98 200.827 327.625C200.827 328.281 201.659 328.621 203.148 328.621C204.636 328.621 205.468 328.281 205.48 327.625C205.468 326.98 204.636 326.64 203.148 326.64ZM217.017 319.058V329.664H215.705V319.058H217.017ZM211.31 319.832C212.904 319.832 214.064 321.285 214.076 323.57C214.064 325.878 212.904 327.32 211.31 327.32C209.705 327.32 208.544 325.878 208.544 323.57C208.544 321.285 209.705 319.832 211.31 319.832ZM211.31 321.003C210.408 321.003 209.798 321.953 209.798 323.57C209.798 325.199 210.408 326.148 211.31 326.148C212.201 326.148 212.81 325.199 212.81 323.57C212.81 321.953 212.201 321.003 211.31 321.003ZM222.332 322.07C222.332 323.804 223.351 325.632 225.062 326.347L224.347 327.378C223.093 326.839 222.179 325.726 221.699 324.378C221.207 325.832 220.281 327.05 219.039 327.636L218.289 326.617C219.965 325.843 221.008 323.875 221.008 322.07V321.179H218.676V320.101H224.652V321.179H222.332V322.07ZM227.148 319.058V329.652H225.836V319.058H227.148Z" fill="white"/>
<path d="M243.849 323.043L245.122 323.588C246.181 324.224 246.035 325.627 245.921 326.587C245.819 327.288 245.692 328.226 245.122 329.404C244.413 330.87 244.165 331.172 243.592 331.66C243.343 331.873 243.157 332.049 242.862 332.183C242.182 332.494 241.387 332.494 239.801 332.494H238.505C237.477 332.585 236.025 331.655 235.619 330.949C235.104 330.056 234.318 328.792 234.064 327.223C233.833 325.796 234.191 324.224 235.663 323.406C235.914 323.267 235.968 323.224 236.877 322.861M237.058 323.679L235.814 317.429C235.617 316.433 236.353 315.5 237.338 315.5C238.033 315.5 238.644 315.975 238.834 316.665L240.271 322.77L241.705 316.681C241.797 316.342 241.996 316.044 242.269 315.83C242.543 315.617 242.877 315.501 243.222 315.5C244.206 315.5 244.949 316.421 244.773 317.42L243.352 325.496" fill="white"/>
<path d="M259.849 323.043L261.122 323.588C262.181 324.224 262.035 325.627 261.921 326.587C261.819 327.288 261.692 328.226 261.122 329.404C260.413 330.87 260.165 331.172 259.592 331.66C259.343 331.873 259.157 332.049 258.862 332.183C258.182 332.494 257.387 332.494 255.801 332.494H254.505C253.477 332.585 252.025 331.655 251.619 330.949C251.104 330.056 250.318 328.792 250.064 327.223C249.833 325.796 250.191 324.224 251.663 323.406C251.914 323.267 251.968 323.224 252.877 322.861M253.058 323.679L251.814 317.429C251.617 316.433 252.353 315.5 253.338 315.5C254.033 315.5 254.644 315.975 254.834 316.665L256.271 322.77L257.705 316.681C257.797 316.342 257.996 316.044 258.269 315.83C258.543 315.617 258.877 315.501 259.222 315.5C260.206 315.5 260.949 316.421 260.773 317.42L259.352 325.496" fill="white"/>
<path d="M275.849 323.043L277.122 323.588C278.181 324.224 278.035 325.627 277.921 326.587C277.819 327.288 277.692 328.226 277.122 329.404C276.413 330.87 276.165 331.172 275.592 331.66C275.343 331.873 275.157 332.049 274.862 332.183C274.182 332.494 273.387 332.494 271.801 332.494H270.505C269.477 332.585 268.025 331.655 267.619 330.949C267.104 330.056 266.318 328.792 266.064 327.223C265.833 325.796 266.191 324.224 267.663 323.406C267.914 323.267 267.968 323.224 268.877 322.861M269.058 323.679L267.814 317.429C267.617 316.433 268.353 315.5 269.338 315.5C270.033 315.5 270.644 315.975 270.834 316.665L272.271 322.77L273.705 316.681C273.797 316.342 273.996 316.044 274.269 315.83C274.543 315.617 274.877 315.501 275.222 315.5C276.206 315.5 276.949 316.421 276.773 317.42L275.352 325.496" fill="white"/>
<path d="M307.215 71C307.215 59.9543 298.261 51 287.215 51H148.39C137.344 51 128.39 59.9543 128.39 71V211.148C128.39 222.194 137.344 231.148 148.39 231.148H307.215H321.39L307.215 217.311V71Z" fill="#1D1D1D"/>
<path d="M148.598 205.012C148.598 206.16 149.336 207.32 150.695 207.836L150.109 208.691C149.131 208.316 148.445 207.602 148.07 206.734C147.684 207.713 146.963 208.562 145.949 208.996L145.34 208.129C146.758 207.508 147.52 206.184 147.52 205.012V203.652H148.598V205.012ZM154.34 203.008V209.465H153.285V206.652H152.055V209.137H151.023V203.195H152.055V205.738H153.285V203.008H154.34ZM150.824 209.664C153.016 209.664 154.387 210.379 154.398 211.574C154.387 212.77 153.016 213.484 150.824 213.473C148.633 213.484 147.262 212.77 147.273 211.574C147.262 210.379 148.633 209.664 150.824 209.664ZM150.824 210.52C149.301 210.52 148.363 210.906 148.375 211.574C148.363 212.242 149.301 212.629 150.824 212.617C152.348 212.629 153.273 212.242 153.285 211.574C153.273 210.906 152.348 210.52 150.824 210.52ZM158.494 203.348C160.076 203.359 161.237 204.332 161.248 205.703C161.237 207.086 160.076 208.047 158.494 208.047C156.901 208.047 155.729 207.086 155.729 205.703C155.729 204.332 156.901 203.359 158.494 203.348ZM158.494 204.285C157.522 204.273 156.807 204.848 156.819 205.703C156.807 206.57 157.522 207.145 158.494 207.145C159.455 207.145 160.17 206.57 160.17 205.703C160.17 204.848 159.455 204.273 158.494 204.285ZM164.225 202.996V208.34H163.112V202.996H164.225ZM164.225 208.82V211.469H158.436V212.477H164.576V213.367H157.358V210.637H163.123V209.711H157.323V208.82H164.225ZM175.223 208.246V209.137H170.981V210.238H174.051V213.473H172.926V211.141H166.715V210.238H169.879V209.137H165.649V208.246H175.223ZM170.981 202.961V204.004H174.262V204.883H171.051C171.157 205.926 172.598 206.693 174.696 206.887L174.344 207.719C172.54 207.555 171.075 206.951 170.43 205.961C169.78 206.951 168.315 207.555 166.516 207.719L166.165 206.887C168.25 206.693 169.692 205.926 169.821 204.883H166.61V204.004H169.879V202.961H170.981ZM183.96 202.996V207.25H185.647V208.176H183.96V213.496H182.858V202.996H183.96ZM181.944 204.637V205.551H175.721V204.637H178.311V203.137H179.425V204.637H181.944ZM178.874 206.324C180.374 206.324 181.475 207.332 181.487 208.762C181.475 210.203 180.374 211.199 178.874 211.211C177.362 211.199 176.26 210.203 176.26 208.762C176.26 207.332 177.362 206.324 178.874 206.324ZM178.874 207.238C177.983 207.238 177.315 207.859 177.327 208.762C177.315 209.676 177.983 210.285 178.874 210.273C179.764 210.285 180.421 209.676 180.421 208.762C180.421 207.859 179.764 207.238 178.874 207.238ZM191.103 204.73V205.633H185.888V204.73H187.95V203.301H189.052V204.73H191.103ZM188.501 206.266C189.837 206.266 190.774 207.262 190.786 208.68C190.774 210.109 189.837 211.117 188.501 211.117C187.188 211.117 186.216 210.109 186.228 208.68C186.216 207.262 187.188 206.266 188.501 206.266ZM188.501 207.191C187.739 207.191 187.212 207.812 187.212 208.68C187.212 209.57 187.739 210.168 188.501 210.168C189.251 210.168 189.802 209.57 189.802 208.68C189.802 207.812 189.251 207.191 188.501 207.191ZM194.899 202.996V213.496H193.845V208.281H192.638V213.004H191.583V203.23H192.638V207.367H193.845V202.996H194.899ZM197.976 204.016L197.87 210.051H196.71L196.605 204.016H197.976ZM197.296 212.582C196.839 212.582 196.452 212.207 196.464 211.75C196.452 211.293 196.839 210.918 197.296 210.918C197.741 210.918 198.128 211.293 198.128 211.75C198.128 212.207 197.741 212.582 197.296 212.582ZM210.726 202.996V209.617H209.672V206.688H208.453V209.254H207.41V203.195H208.453V205.773H209.672V202.996H210.726ZM207.023 204.191V205.07H201.715V204.191H203.836V203.078H204.937V204.191H207.023ZM204.375 205.562C205.711 205.562 206.648 206.277 206.648 207.367C206.648 208.457 205.711 209.172 204.375 209.172C203.062 209.172 202.125 208.457 202.125 207.367C202.125 206.277 203.062 205.562 204.375 205.562ZM204.375 206.383C203.636 206.383 203.121 206.77 203.121 207.367C203.121 207.965 203.636 208.363 204.375 208.363C205.136 208.363 205.64 207.965 205.64 207.367C205.64 206.77 205.136 206.383 204.375 206.383ZM207.211 209.77C209.437 209.77 210.773 210.438 210.785 211.633C210.773 212.805 209.437 213.484 207.211 213.473C204.984 213.484 203.648 212.805 203.66 211.633C203.648 210.438 204.984 209.77 207.211 209.77ZM207.211 210.625C205.652 210.625 204.75 210.977 204.761 211.633C204.75 212.266 205.652 212.629 207.211 212.617C208.781 212.629 209.66 212.266 209.672 211.633C209.66 210.977 208.781 210.625 207.211 210.625ZM221.478 208.352V209.254H211.904V208.352H216.135V207.215H213.158V203.242H214.26V204.379H219.123V203.242H220.236V207.215H217.236V208.352H221.478ZM220.307 210.191V213.496H219.182V211.082H212.971V210.191H220.307ZM214.26 206.324H219.123V205.211H214.26V206.324ZM230.285 203.008V206.383H231.809V207.309H230.285V210.859H229.172V203.008H230.285ZM228.305 204.227V205.129H222.047V204.227H224.625V202.996H225.738V204.227H228.305ZM225.176 205.633C226.688 205.633 227.719 206.418 227.719 207.613C227.719 208.809 226.688 209.582 225.176 209.582C223.652 209.582 222.621 208.809 222.621 207.613C222.621 206.418 223.652 205.633 225.176 205.633ZM225.176 206.488C224.285 206.488 223.688 206.922 223.699 207.613C223.688 208.293 224.285 208.715 225.176 208.715C226.067 208.715 226.664 208.293 226.676 207.613C226.664 206.922 226.067 206.488 225.176 206.488ZM230.731 212.371V213.273H223.629V210.238H224.742V212.371H230.731ZM243.036 202.996V207.25H244.723V208.176H243.036V213.496H241.934V202.996H243.036ZM241.02 204.637V205.551H234.798V204.637H237.387V203.137H238.501V204.637H241.02ZM237.95 206.324C239.45 206.324 240.551 207.332 240.563 208.762C240.551 210.203 239.45 211.199 237.95 211.211C236.438 211.199 235.337 210.203 235.337 208.762C235.337 207.332 236.438 206.324 237.95 206.324ZM237.95 207.238C237.059 207.238 236.391 207.859 236.403 208.762C236.391 209.676 237.059 210.285 237.95 210.273C238.84 210.285 239.497 209.676 239.497 208.762C239.497 207.859 238.84 207.238 237.95 207.238ZM253.448 203.383V206.242H247.261V207.449H253.671V208.352H246.147V205.387H252.311V204.285H246.112V203.383H253.448ZM254.585 209.348V210.238H250.319V213.52H249.206V210.238H244.975V209.348H254.585ZM267.417 211.27V212.195H257.808V211.27H262.038V209.113H258.91V203.711H260.023V205.516H265.179V203.711H266.281V209.113H263.14V211.27H267.417ZM260.023 208.211H265.179V206.418H260.023V208.211ZM276.927 202.996V213.496H275.861V208.117H274.513V212.957H273.47V203.207H274.513V207.203H275.861V202.996H276.927ZM269.545 204.238V209.84C270.517 209.834 271.578 209.758 272.767 209.523L272.884 210.496C271.443 210.754 270.236 210.824 269.111 210.824H268.431V204.238H269.545Z" fill="white"/>
<path d="M153.637 182.996V185.715H155.16V186.664H153.637V189.324H152.523V182.996H153.637ZM153.637 189.875V193.367H146.934V189.875H153.637ZM148.023 190.754V192.465H152.535V190.754H148.023ZM151.656 184.062V184.953H145.398V184.062H147.977V182.914H149.09V184.062H151.656ZM148.527 185.41C150.039 185.41 151.07 186.16 151.07 187.285C151.07 188.422 150.039 189.16 148.527 189.172C146.992 189.16 145.973 188.422 145.973 187.285C145.973 186.16 146.992 185.41 148.527 185.41ZM148.527 186.266C147.637 186.254 147.039 186.652 147.051 187.285C147.039 187.941 147.637 188.328 148.527 188.328C149.418 188.328 150.016 187.941 150.027 187.285C150.016 186.652 149.418 186.254 148.527 186.266ZM158.119 184.238C158.108 186.594 157.815 189.02 156.35 191.082L155.483 190.59C156.707 188.949 157.076 187.133 157.158 185.152H155.729V184.238H158.119ZM160.451 184.238C160.451 185.123 160.434 186.09 160.323 187.062H161.553V183.266H162.608V192.98H161.553V187.965H160.194C159.953 189.271 159.514 190.566 158.705 191.715L157.838 191.211C159.198 189.389 159.444 187.18 159.49 185.152H158.436V184.238H160.451ZM164.6 182.996V193.496H163.533V182.996H164.6ZM177.913 188.527V189.441H168.339V188.527H172.569V187.508C170.6 187.396 169.37 186.635 169.37 185.398C169.37 184.098 170.835 183.301 173.12 183.289C175.393 183.301 176.87 184.098 176.87 185.398C176.87 186.635 175.628 187.396 173.671 187.508V188.527H177.913ZM176.835 192.371V193.273H169.546V190.227H170.671V192.371H176.835ZM173.12 184.191C171.514 184.191 170.507 184.648 170.518 185.398C170.507 186.195 171.514 186.629 173.12 186.629C174.725 186.629 175.721 186.195 175.721 185.398C175.721 184.648 174.725 184.191 173.12 184.191ZM185.589 184.18V186.91H186.995V183.195H188.062V192.98H186.995V187.824H185.589V190.73H181.511V184.18H185.589ZM182.566 185.059V189.84H184.546V185.059H182.566ZM190.195 182.996V193.496H189.128V182.996H190.195ZM194.49 185.867C194.49 187.543 195.193 189.336 196.599 190.191L195.978 191.047C194.994 190.455 194.326 189.406 193.974 188.188C193.581 189.523 192.861 190.66 191.841 191.281L191.15 190.449C192.638 189.559 193.412 187.707 193.412 185.914V183.957H194.49V185.867ZM200.326 182.996V193.496H199.259V182.996H200.326ZM198.146 183.195V192.98H197.091V187.613H195.462V186.688H197.091V183.195H198.146ZM205.289 186.09C205.289 187.848 206.437 189.664 208.054 190.355L207.445 191.223C206.209 190.678 205.224 189.523 204.738 188.117C204.252 189.617 203.261 190.895 202.043 191.492L201.398 190.613C202.98 189.875 204.152 187.895 204.164 186.09V184.977H201.761V184.051H207.679V184.977H205.289V186.09ZM210.117 182.996V193.496H209.004V182.996H210.117Z" fill="#F4F4F4"/>
<rect x="137" y="60" width="162" height="109" rx="16" fill="#D9D9D9"/>
<path fill-rule="evenodd" clip-rule="evenodd" d="M224.987 101.148C224.987 101.148 218.729 104.082 213.448 102.321L218.895 84.023C219.866 79.3246 225.559 77.4392 229.143 80.6293L236.853 87.4929C240.436 90.683 239.222 96.5561 234.668 98.0645L224.987 101.148ZM229.307 93.1564L222.912 95.2741L224.276 88.6774C224.585 87.1787 226.401 86.5773 227.544 87.5949L230.004 89.7843C231.147 90.8018 230.76 92.6752 229.307 93.1564Z" fill="#1D1D1D"/>
<rect x="185.82" y="115.962" width="29.8283" height="37.6517" rx="1.06524" fill="#1D1D1D" stroke="#1D1D1D" stroke-width="0.291738"/>
<rect x="183.474" y="101.098" width="32.1753" height="12.2257" rx="1.06524" fill="#1D1D1D" stroke="#1D1D1D" stroke-width="0.291738"/>
<rect x="218.679" y="115.962" width="29.8283" height="37.6517" rx="1.06524" fill="#1D1D1D" stroke="#1D1D1D" stroke-width="0.291738"/>
<rect x="218.679" y="101.098" width="32.1753" height="12.2257" rx="1.06524" fill="#1D1D1D" stroke="#1D1D1D" stroke-width="0.291738"/>
<path d="M220.88 102.712C216.382 103.299 209.341 101.539 207.239 100.822C205.28 100.154 199.961 98.1862 199.251 97.9231C199.197 97.9031 199.144 97.8848 199.089 97.866C194.603 96.3144 193.425 90.4931 196.987 87.3223L204.697 80.4587C208.28 77.2686 213.974 79.154 214.945 83.8525L217.473 97.322C217.473 97.322 217.946 101.539 220.88 102.712Z" fill="#1D1D1D"/>
<path d="M165.217 91.425L169.621 95.8641L165.217 100.302L160.811 95.8641L165.217 91.425ZM178.618 108.745L174.21 113.183L169.804 108.742L174.212 104.303L178.618 108.745ZM181.765 75L186.17 79.4376L181.764 83.8783L177.359 79.4376L181.765 75ZM260.838 137.158L256.431 132.719L260.835 128.278L265.243 132.717L260.838 137.158ZM252.866 149.516L248.462 145.079L252.866 140.64L257.272 145.079L252.866 149.516ZM159.408 146L155 141.561L159.403 137.12L163.81 141.559L159.408 146ZM277.596 134.805L273.191 130.366L277.596 125.928L282 130.366L277.596 134.805ZM259.996 82.7075L264.4 87.145L259.994 91.5842L255.59 87.145L259.996 82.7075Z" fill="black"/>
<path d="M168.137 132.834C172.659 135.529 180.146 132.42 179.493 134.152C178.034 138.021 160.412 138.418 165.935 128.127C160.696 129.371 159.989 125.612 162.148 122.141C156.127 123.947 153.715 120.524 157.104 115.38C158.166 113.776 160.407 117.413 159.696 118.942C165.254 115.638 168.261 119.733 165.434 124.386C173.582 122.403 169.118 129.404 168.137 132.834Z" fill="black"/>
<path d="M244.404 82.2789C244.932 83.2641 246.43 87.0179 245.106 87.3137C243.022 87.7773 238.872 78.8093 245.692 79.9368C242.358 75.9799 243.138 74.4907 248.399 75.3181C243.364 68.7206 253.212 68.3826 253.692 71.5263C253.833 72.4658 250.922 70.232 249.598 71.6418C248.069 73.2674 255.854 79.421 247.027 77.5868C249.754 81.219 249.7 82.6813 244.404 82.2789Z" fill="black"/>
<path d="M278.55 97.5663C277.823 94.994 278.269 95.2122 280.801 94.097C284.399 102.532 277.743 100.893 272.199 98.7488C276.268 106.242 273.143 106.32 266.337 104.533C266.705 107.902 266.153 111.864 264.184 112.478C261.944 113.177 256.365 107.301 256.365 107.301L258.591 104.788C258.591 104.788 261.478 107.899 263.35 108.969C263.795 102.854 262.934 99.3 270.442 102.424C265.054 92.665 272.057 95.6374 278.55 97.5663Z" fill="black"/>
</svg>
