<svg width="79" height="23" viewBox="0 0 79 23" fill="none" xmlns="http://www.w3.org/2000/svg">
<path d="M64.8256 11.5167H78.1911V14.2678H71.4205V14.8922H78.1911V17.819H59.8501V14.8922H66.6207V14.2678H62.972C61.1769 14.2678 59.8501 12.941 59.8501 11.146V5.13635H78.1911V7.8875H64.3378V8.5509H78.1911V10.8533H64.3378V11.0484C64.3378 11.3606 64.5134 11.5167 64.8256 11.5167ZM78.1911 22.931H73.7034V21.3311H59.8501V18.4043H78.1911V22.931Z" fill="#343434"/>
<path d="M40.1426 5.13635H48.4155V8.27774H49.1765V5.13635H53.274V17.4678H49.1765V12.1801H48.4155V15.5166C46.718 15.4581 45.1181 14.541 44.2791 13.1362C43.4401 14.541 41.8401 15.6532 40.1426 15.7117V12.1996C41.3913 12.0825 42.1328 10.8338 42.1328 8.64846H40.1426V5.13635ZM40.1426 16.4922H44.6303V17.858C44.6303 18.5604 45.0986 19.0287 45.801 19.0287H58.2885V22.931H44.4352C41.8596 22.931 40.1426 21.214 40.1426 18.6385V16.4922ZM58.0934 17.4678H53.9959V5.13635H58.0934V17.4678ZM46.4254 8.64846C46.4254 10.6582 47.0497 11.7313 48.1424 11.9655V8.64846H46.4254Z" fill="#343434"/>
<path d="M28.8642 22.931H24.8058C21.9376 22.931 20.0449 20.8043 20.0449 17.5848C20.0449 14.3654 21.5863 12.6289 23.44 12.2386C24.3765 12.0435 24.9424 11.6533 24.9424 10.6191C24.9424 9.546 24.4936 8.84358 23.44 8.84358H20.24V5.13635H24.6497C27.1667 5.13635 28.8447 7.26313 28.8447 10.4826C28.8447 11.0094 28.7862 11.4972 28.7276 11.9264H29.6642V5.13635H33.5665V22.931H29.6642V15.8288H25.118C24.3375 16.0044 23.9473 16.5117 23.9473 17.5263C23.9473 18.5409 24.6497 19.2238 25.7033 19.2238H28.8642V22.931ZM38.1908 22.931H34.2885V5.13635H38.1908V22.931Z" fill="#343434"/>
<path d="M0.14209 17.0775V13.5654H3.40127V8.64846H0.14209V5.13635H9.3126H18.4831V8.64846H15.2239V13.5654H18.4831V17.0775H0.14209ZM0.14209 19.0287H18.4831V22.931H0.14209V19.0287Z" fill="#343434"/>
<path d="M9.47932 6.43895L5.81017 5.22382C4.97656 4.94775 4.75441 3.8728 5.4103 3.2889L6.82145 2.03266C7.47734 1.44876 8.51936 1.79385 8.69708 2.65382L9.47932 6.43895Z" fill="#343434"/>
<path fill-rule="evenodd" clip-rule="evenodd" d="M12.2127 5.22397L8.54357 6.4391L9.32581 2.65396C9.50353 1.794 10.5455 1.44891 11.2014 2.0328L12.6126 3.28905C13.2685 3.87294 13.0463 4.9479 12.2127 5.22397ZM11.1553 4.58111L9.95037 4.90299L10.1172 3.66332C10.1713 3.26163 10.6522 3.08347 10.9549 3.35297L11.3611 3.71455C11.6619 3.98234 11.5444 4.47716 11.1553 4.58111Z" fill="#343434"/>
</svg>
