<svg width="93" height="93" viewBox="0 0 93 93" fill="none" xmlns="http://www.w3.org/2000/svg">
<mask id="path-1-inside-1_83_403" fill="white">
<path d="M46.3401 60.0283L44.1283 76.2408L46.3401 83.9148C46.3336 84.4701 46.4407 85.0211 46.6551 85.5354C46.8696 86.0496 47.187 86.5169 47.5887 86.9096C47.9905 87.3023 48.4685 87.6125 48.9946 87.8221C49.5208 88.0317 50.0845 88.1364 50.6526 88.13C51.2208 88.1364 51.7845 88.0317 52.3106 87.8221C52.8368 87.6125 53.3148 87.3023 53.7165 86.9096C54.1183 86.5169 54.4357 86.0496 54.6501 85.5354C54.8645 85.0211 54.9716 84.4701 54.9651 83.9148V34.7368"/>
<path d="M37.7151 37.547V83.9148C37.7086 84.4701 37.8157 85.0211 38.0301 85.5354C38.2446 86.0496 38.562 86.5169 38.9637 86.9096C39.3655 87.3023 39.8435 87.6125 40.3696 87.8221C40.8958 88.0317 41.4595 88.1364 42.0276 88.13C42.5958 88.1364 43.1595 88.0317 43.6856 87.8221C44.2118 87.6125 44.6898 87.3023 45.0915 86.9096C45.4933 86.5169 45.8107 86.0496 46.0251 85.5354C46.2395 85.0211 46.3466 84.4701 46.3401 83.9148"/>
<path d="M42.8014 84.4552L37.7151 50.1927C37.7219 50.7481 37.615 51.2992 37.4006 51.8136C37.1863 52.328 36.8689 52.7953 36.4671 53.1881C36.0653 53.5808 35.5872 53.891 35.0609 54.1005C34.5347 54.31 33.9708 54.4146 33.4026 54.408C32.8344 54.4146 32.2706 54.31 31.7444 54.1005C31.2181 53.891 30.74 53.5808 30.3382 53.1881C29.9364 52.7953 29.619 52.328 29.4047 51.8136C29.1903 51.2992 29.0834 50.7481 29.0901 50.1927V34.7368C29.0901 32.5009 29.9988 30.3565 31.6163 28.7755C33.2339 27.1945 35.4277 26.3063 37.7151 26.3063H54.9651C57.2526 26.3063 59.4464 27.1945 61.0639 28.7755C62.6814 30.3565 63.5901 32.5009 63.5901 34.7368V50.1927C63.5969 50.7481 63.49 51.2992 63.2756 51.8136C63.0613 52.328 62.7439 52.7953 62.3421 53.1881C61.9403 53.5808 61.4622 53.891 60.9359 54.1005C60.4097 54.31 59.8458 54.4146 59.2776 54.408C58.7094 54.4146 58.1456 54.31 57.6194 54.1005C57.0931 53.891 56.615 53.5808 56.2132 53.1881C55.8114 52.7953 55.494 52.328 55.2797 51.8136C55.0653 51.2992 54.9584 50.7481 54.9651 50.1927L54.9651 34.7368"/>
</mask>
<path d="M46.3401 60.0283L44.1283 76.2408L46.3401 83.9148C46.3336 84.4701 46.4407 85.0211 46.6551 85.5354C46.8696 86.0496 47.187 86.5169 47.5887 86.9096C47.9905 87.3023 48.4685 87.6125 48.9946 87.8221C49.5208 88.0317 50.0845 88.1364 50.6526 88.13C51.2208 88.1364 51.7845 88.0317 52.3106 87.8221C52.8368 87.6125 53.3148 87.3023 53.7165 86.9096C54.1183 86.5169 54.4357 86.0496 54.6501 85.5354C54.8645 85.0211 54.9716 84.4701 54.9651 83.9148V34.7368" fill="#D9D9D9"/>
<path d="M37.7151 37.547V83.9148C37.7086 84.4701 37.8157 85.0211 38.0301 85.5354C38.2446 86.0496 38.562 86.5169 38.9637 86.9096C39.3655 87.3023 39.8435 87.6125 40.3696 87.8221C40.8958 88.0317 41.4595 88.1364 42.0276 88.13C42.5958 88.1364 43.1595 88.0317 43.6856 87.8221C44.2118 87.6125 44.6898 87.3023 45.0915 86.9096C45.4933 86.5169 45.8107 86.0496 46.0251 85.5354C46.2395 85.0211 46.3466 84.4701 46.3401 83.9148" fill="#D9D9D9"/>
<path d="M42.8014 84.4552L37.7151 50.1927C37.7219 50.7481 37.615 51.2992 37.4006 51.8136C37.1863 52.328 36.8689 52.7953 36.4671 53.1881C36.0653 53.5808 35.5872 53.891 35.0609 54.1005C34.5347 54.31 33.9708 54.4146 33.4026 54.408C32.8344 54.4146 32.2706 54.31 31.7444 54.1005C31.2181 53.891 30.74 53.5808 30.3382 53.1881C29.9364 52.7953 29.619 52.328 29.4047 51.8136C29.1903 51.2992 29.0834 50.7481 29.0901 50.1927V34.7368C29.0901 32.5009 29.9988 30.3565 31.6163 28.7755C33.2339 27.1945 35.4277 26.3063 37.7151 26.3063H54.9651C57.2526 26.3063 59.4464 27.1945 61.0639 28.7755C62.6814 30.3565 63.5901 32.5009 63.5901 34.7368V50.1927C63.5969 50.7481 63.49 51.2992 63.2756 51.8136C63.0613 52.328 62.7439 52.7953 62.3421 53.1881C61.9403 53.5808 61.4622 53.891 60.9359 54.1005C60.4097 54.31 59.8458 54.4146 59.2776 54.408C58.7094 54.4146 58.1456 54.31 57.6194 54.1005C57.0931 53.891 56.615 53.5808 56.2132 53.1881C55.8114 52.7953 55.494 52.328 55.2797 51.8136C55.0653 51.2992 54.9584 50.7481 54.9651 50.1927L54.9651 34.7368" fill="#D9D9D9"/>
<path d="M39.152 37.3912C39.066 36.5976 38.3529 36.024 37.5593 36.1101C36.7657 36.1961 36.1922 36.9092 36.2782 37.7028L39.152 37.3912ZM41.3645 84.611C41.4505 85.4045 42.1636 85.9781 42.9572 85.8921C43.7508 85.806 44.3243 85.0929 44.2383 84.2994L41.3645 84.611ZM36.2782 37.7028L41.3645 84.611L44.2383 84.2994L39.152 37.3912L36.2782 37.7028ZM49.2042 60.419C49.42 58.8373 48.3127 57.38 46.7309 57.1642C45.1491 56.9484 43.6918 58.0558 43.476 59.6376L49.2042 60.419ZM46.3401 83.9148L49.2306 83.8809L49.226 83.4899L49.1177 83.1142L46.3401 83.9148ZM50.6526 88.13L50.685 85.2396L50.6526 85.2392L50.6203 85.2396L50.6526 88.13ZM54.9651 83.9148H52.0745V83.9317L52.0747 83.9486L54.9651 83.9148ZM40.6057 37.547C40.6057 35.9505 39.3116 34.6563 37.7151 34.6563C36.1187 34.6563 34.8245 35.9505 34.8245 37.547H40.6057ZM37.7151 83.9148L40.6055 83.9486L40.6057 83.9317V83.9148H37.7151ZM42.0276 88.13L42.06 85.2396L42.0276 85.2392L41.9953 85.2396L42.0276 88.13ZM39.9421 84.8796C40.1765 86.4588 41.6467 87.5489 43.2258 87.3145C44.805 87.08 45.8951 85.6099 45.6607 84.0307L39.9421 84.8796ZM37.7151 50.1927L40.5744 49.7683L34.8247 50.2278L37.7151 50.1927ZM33.4026 54.408L33.4362 51.5175L33.4026 51.5172L33.3691 51.5175L33.4026 54.408ZM29.0901 50.1927L31.9806 50.2278L31.9808 50.2103V50.1927H29.0901ZM37.7151 26.3063V23.4156V26.3063ZM63.5901 34.7368H66.4808H63.5901ZM63.5901 50.1927H60.6995V50.2103L60.6997 50.2278L63.5901 50.1927ZM59.2776 54.408L59.3112 51.5175L59.2776 51.5172L59.2441 51.5175L59.2776 54.408ZM54.9651 50.1927L57.8556 50.2278L57.8558 50.2103V50.1927L54.9651 50.1927ZM44.1283 76.2408L41.2642 75.8501L41.1817 76.4549L41.3508 77.0414L44.1283 76.2408ZM43.4497 83.8809C43.4386 84.8308 43.6219 85.7717 43.9871 86.6477L49.3232 84.423C49.2596 84.2704 49.2287 84.1094 49.2306 83.9486L43.4497 83.8809ZM43.9871 86.6477C44.3523 87.5236 44.891 88.3148 45.5682 88.9767L49.6093 84.8424C49.483 84.7189 49.3868 84.5757 49.3232 84.423L43.9871 86.6477ZM45.5682 88.9767C46.2452 89.6385 47.0471 90.1578 47.9249 90.5075L50.0643 85.1367C49.8899 85.0672 49.7357 84.966 49.6093 84.8424L45.5682 88.9767ZM47.9249 90.5075C48.8027 90.8572 49.7409 91.031 50.685 91.0205L50.6203 85.2396C50.4281 85.2417 50.2389 85.2062 50.0643 85.1367L47.9249 90.5075ZM50.6203 91.0205C51.5644 91.031 52.5025 90.8572 53.3803 90.5075L51.2409 85.1367C51.0664 85.2062 50.8771 85.2417 50.685 85.2396L50.6203 91.0205ZM53.3803 90.5075C54.2582 90.1578 55.06 89.6385 55.7371 88.9767L51.696 84.8424C51.5695 84.966 51.4154 85.0672 51.2409 85.1367L53.3803 90.5075ZM55.7371 88.9767C56.4142 88.3148 56.953 87.5236 57.3181 86.6477L51.9821 84.423C51.9184 84.5757 51.8223 84.7189 51.696 84.8424L55.7371 88.9767ZM57.3181 86.6477C57.6834 85.7717 57.8667 84.8308 57.8556 83.8809L52.0747 83.9486C52.0766 84.1094 52.0457 84.2704 51.9821 84.423L57.3181 86.6477ZM57.8557 83.9148V34.7368H52.0745V83.9148H57.8557ZM34.8245 37.547V83.9148H40.6057V37.547H34.8245ZM34.8247 83.8809C34.8136 84.8308 34.9969 85.7717 35.3621 86.6477L40.6982 84.423C40.6346 84.2704 40.6037 84.1093 40.6055 83.9486L34.8247 83.8809ZM35.3621 86.6477C35.7273 87.5236 36.266 88.3148 36.9432 88.9767L40.9843 84.8424C40.858 84.7189 40.7619 84.5757 40.6982 84.423L35.3621 86.6477ZM36.9432 88.9767C37.6202 89.6385 38.4221 90.1578 39.2999 90.5075L41.4393 85.1367C41.2649 85.0672 41.1107 84.966 40.9843 84.8424L36.9432 88.9767ZM39.2999 90.5075C40.1777 90.8572 41.1159 91.031 42.06 91.0205L41.9953 85.2396C41.8031 85.2417 41.6139 85.2062 41.4393 85.1367L39.2999 90.5075ZM41.9953 91.0205C42.9394 91.031 43.8775 90.8572 44.7553 90.5075L42.6159 85.1367C42.4414 85.2062 42.2521 85.2417 42.06 85.2396L41.9953 91.0205ZM44.7553 90.5075C45.6332 90.1578 46.435 89.6385 47.1121 88.9767L43.071 84.8424C42.9445 84.966 42.7904 85.0672 42.6159 85.1367L44.7553 90.5075ZM47.1121 88.9767C47.7892 88.3148 48.328 87.5236 48.6931 86.6477L43.3571 84.423C43.2934 84.5757 43.1973 84.7189 43.071 84.8424L47.1121 88.9767ZM48.6931 86.6477C49.0584 85.7717 49.2417 84.8308 49.2306 83.8809L43.4497 83.9486C43.4516 84.1093 43.4207 84.2704 43.3571 84.423L48.6931 86.6477ZM45.6607 84.0307L40.5744 49.7683L34.8559 50.6172L39.9421 84.8796L45.6607 84.0307ZM34.8247 50.2278C34.8267 50.3884 34.7959 50.5494 34.7324 50.7018L40.0689 52.9254C40.434 52.049 40.6171 51.1078 40.6056 50.1576L34.8247 50.2278ZM34.7324 50.7018C34.6688 50.8544 34.5728 50.9975 34.4465 51.1209L38.4876 55.2552C39.165 54.5931 39.7038 53.8016 40.0689 52.9254L34.7324 50.7018ZM34.4465 51.1209C34.3202 51.2444 34.1661 51.3455 33.9918 51.4149L36.13 56.7862C37.0082 56.4366 37.8104 55.9172 38.4876 55.2552L34.4465 51.1209ZM33.9918 51.4149C33.8173 51.4843 33.6282 51.5198 33.4362 51.5175L33.3691 57.2984C34.3135 57.3094 35.252 57.1357 36.13 56.7862L33.9918 51.4149ZM33.3691 51.5175C33.1771 51.5198 32.988 51.4843 32.8135 51.4149L30.6752 56.7862C31.5533 57.1357 32.4918 57.3094 33.4362 57.2984L33.3691 51.5175ZM32.8135 51.4149C32.6391 51.3455 32.4851 51.2444 32.3588 51.1209L28.3177 55.2552C28.9949 55.9172 29.7971 56.4366 30.6752 56.7862L32.8135 51.4149ZM32.3588 51.1209C32.2325 50.9975 32.1365 50.8544 32.0729 50.7018L26.7364 52.9254C27.1015 53.8016 27.6403 54.5931 28.3177 55.2552L32.3588 51.1209ZM32.0729 50.7018C32.0094 50.5494 31.9786 50.3884 31.9806 50.2278L26.1997 50.1576C26.1882 51.1078 26.3713 52.049 26.7364 52.9254L32.0729 50.7018ZM31.9808 50.1927V34.7368H26.1995V50.1927H31.9808ZM31.9808 34.7368C31.9808 33.2891 32.5685 31.8869 33.6369 30.8427L29.5958 26.7084C27.4292 28.8261 26.1995 31.7127 26.1995 34.7368H31.9808ZM33.6369 30.8427C34.7075 29.7962 36.1733 29.1969 37.7151 29.1969V23.4156C34.682 23.4156 31.7602 24.5928 29.5958 26.7084L33.6369 30.8427ZM37.7151 29.1969H54.9651V23.4156H37.7151V29.1969ZM54.9651 29.1969C56.507 29.1969 57.9728 29.7962 59.0434 30.8427L63.0845 26.7084C60.9201 24.5928 57.9983 23.4156 54.9651 23.4156V29.1969ZM59.0434 30.8427C60.1118 31.8869 60.6995 33.2891 60.6995 34.7368H66.4808C66.4808 31.7127 65.2511 28.8261 63.0845 26.7084L59.0434 30.8427ZM60.6995 34.7368V50.1927H66.4808V34.7368H60.6995ZM60.6997 50.2278C60.7017 50.3884 60.6709 50.5494 60.6074 50.7018L65.9439 52.9254C66.309 52.049 66.4921 51.1078 66.4806 50.1576L60.6997 50.2278ZM60.6074 50.7018C60.5438 50.8544 60.4478 50.9975 60.3215 51.1209L64.3626 55.2552C65.04 54.5931 65.5788 53.8016 65.9439 52.9254L60.6074 50.7018ZM60.3215 51.1209C60.1952 51.2444 60.0412 51.3455 59.8668 51.4149L62.005 56.7862C62.8832 56.4366 63.6854 55.9172 64.3626 55.2552L60.3215 51.1209ZM59.8668 51.4149C59.6923 51.4843 59.5032 51.5198 59.3112 51.5175L59.2441 57.2984C60.1885 57.3094 61.127 57.1357 62.005 56.7862L59.8668 51.4149ZM59.2441 51.5175C59.0521 51.5198 58.863 51.4843 58.6885 51.4149L56.5502 56.7862C57.4283 57.1357 58.3668 57.3094 59.3112 57.2984L59.2441 51.5175ZM58.6885 51.4149C58.5141 51.3455 58.3601 51.2444 58.2337 51.1209L54.1927 55.2552C54.8699 55.9172 55.6721 56.4366 56.5502 56.7862L58.6885 51.4149ZM58.2337 51.1209C58.1075 50.9975 58.0115 50.8544 57.9479 50.7018L52.6114 52.9254C52.9765 53.8016 53.5153 54.5931 54.1927 55.2552L58.2337 51.1209ZM57.9479 50.7018C57.8844 50.5494 57.8536 50.3884 57.8556 50.2278L52.0747 50.1576C52.0632 51.1078 52.2463 52.049 52.6114 52.9254L57.9479 50.7018ZM57.8558 50.1927L57.8557 34.7368L52.0745 34.7368L52.0745 50.1927L57.8558 50.1927ZM43.476 59.6376L41.2642 75.8501L46.9924 76.6316L49.2042 60.419L43.476 59.6376ZM41.3508 77.0414L43.5626 84.7153L49.1177 83.1142L46.9059 75.4403L41.3508 77.0414Z" fill="#D9D9D9" mask="url(#path-1-inside-1_83_403)"/>
<path d="M52.082 15.4387C52.082 18.61 49.5112 21.1809 46.3398 21.1809C43.1685 21.1809 40.5977 18.61 40.5977 15.4387C40.5977 12.2674 43.1685 9.69653 46.3398 9.69653C49.5112 9.69653 52.082 12.2674 52.082 15.4387Z" fill="#D9D9D9" stroke="#D9D9D9" stroke-width="2.89062" stroke-miterlimit="10" stroke-linecap="round"/>
</svg>
