<svg width="21" height="30" viewBox="0 0 21 30" fill="none" xmlns="http://www.w3.org/2000/svg">
<path d="M20.1039 14.0847L10.9579 1.32906C10.8762 1.21537 10.7685 1.12271 10.6439 1.0587C10.5192 0.9947 10.381 0.96119 10.2408 0.960938H10.2387C10.0979 0.961231 9.95927 0.995039 9.83424 1.05955C9.7092 1.12406 9.6014 1.21742 9.51979 1.33186L0.432835 14.0875C0.338784 14.2193 0.28302 14.3745 0.271686 14.5359C0.260352 14.6973 0.293887 14.8587 0.368598 15.0024C0.44281 15.1462 0.555352 15.2668 0.693834 15.3509C0.832316 15.435 0.99137 15.4794 1.15349 15.4791H5.43001L5.42966 29.08C5.42962 29.1958 5.45243 29.3104 5.4968 29.4173C5.54118 29.5242 5.60623 29.6213 5.68826 29.7032C5.77028 29.785 5.86766 29.8498 5.97483 29.8941C6.082 29.9383 6.19686 29.961 6.31284 29.9609L14.2253 29.9606C14.3413 29.9606 14.4562 29.9379 14.5634 29.8936C14.6706 29.8493 14.768 29.7843 14.85 29.7025C14.932 29.6206 14.9971 29.5234 15.0414 29.4164C15.0858 29.3094 15.1085 29.1948 15.1084 29.079V15.4794H19.3864C19.7163 15.4794 20.0193 15.2938 20.1716 15.0006C20.246 14.8566 20.2791 14.6948 20.2671 14.5331C20.2552 14.3715 20.1987 14.2163 20.1039 14.0847Z" fill="black"/>
</svg>
