<svg width="107" height="173" viewBox="0 0 107 173" fill="none" xmlns="http://www.w3.org/2000/svg">
<path d="M33.8414 126.216L38.1528 118.771H48.586L44.0495 127.387C43.1264 128.925 43.5882 131.387 46.2034 131.385H69.8495C70.9121 128.3 75.8997 123.903 80.8265 129.687C82.5117 132.002 84.0502 136.917 84.0502 170.464H64.2715C63.2672 166.533 63.7803 159.42 69.2341 156.61V140.966H41.3765C29.8954 140.966 31.7161 130.265 33.8414 126.216Z" fill="#1D1D1D"/>
<path d="M74.4507 155.426C72.3145 155.472 70.6 155.906 69.2341 156.61M69.2341 156.61C63.7803 159.42 63.2672 166.533 64.2715 170.464H84.0502C84.0502 136.917 82.5117 132.002 80.8265 129.687C75.8997 123.903 70.9121 128.3 69.8495 131.385H46.2034C43.5882 131.387 43.1264 128.925 44.0495 127.387L48.586 118.771H38.1528L33.8414 126.216C31.7161 130.265 29.8954 140.966 41.3765 140.966H69.2341V156.61Z" stroke="#1D1D1D" stroke-width="4.30777"/>
<path d="M56.7204 170.464H8.60348C5.85162 150.917 26.0877 152.348 39.4786 156.546L59.2744 118.771H70.5113L51.2852 157.161C56.1257 158.318 56.7204 166.512 56.7204 170.464Z" fill="#1D1D1D"/>
<path d="M43.4666 158.318C42.4159 157.924 40.669 156.919 39.4786 156.546M39.4786 156.546C26.0877 152.348 5.85162 150.917 8.60348 170.464H56.7204C56.7204 166.512 56.1257 158.318 51.2852 157.161L70.5113 118.771H59.2744L39.4786 156.546Z" stroke="#1D1D1D" stroke-width="4.30777"/>
<rect x="4.24995" y="62.3634" width="46.9676" height="59.2755" rx="1.5258" fill="#1D1D1D" stroke="#1D1D1D" stroke-width="0.417872"/>
<rect x="0.556592" y="38.9782" width="50.66" height="19.2748" rx="1.5258" fill="#1D1D1D" stroke="#1D1D1D" stroke-width="0.417872"/>
<rect x="55.9433" y="62.3634" width="46.9676" height="59.2755" rx="1.5258" fill="#1D1D1D" stroke="#1D1D1D" stroke-width="0.417872"/>
<rect x="55.9433" y="38.9782" width="50.66" height="19.2748" rx="1.5258" fill="#1D1D1D" stroke="#1D1D1D" stroke-width="0.417872"/>
<path d="M59.4271 41.539C52.3501 42.4621 41.2729 39.6928 37.9669 38.5656C34.8754 37.5115 26.467 34.4002 25.3893 34.001C25.312 33.9724 25.2347 33.9456 25.1568 33.9188C18.0889 31.4838 16.2315 22.3184 21.838 17.3273L33.9674 6.52934C39.605 1.51055 48.5616 4.47671 50.0891 11.8685L54.0664 33.059C54.0664 33.059 54.8116 39.6928 59.4271 41.539Z" fill="#1D1D1D"/>
<path d="M47.1745 41.539C54.2515 42.4621 65.3286 39.6928 68.6346 38.5656C71.7262 37.5115 80.1346 34.4002 81.2123 34.001C81.2896 33.9724 81.3668 33.9456 81.4448 33.9188C88.5126 31.4838 90.3701 22.3184 84.7636 17.3273L72.6342 6.52934C66.9965 1.51055 58.04 4.47671 56.5124 11.8685L52.5352 33.059C52.5352 33.059 51.7899 39.6928 47.1745 41.539Z" fill="#1D1D1D"/>
<path d="M89.275 67.1517C89.275 75.6372 83.2969 82.155 76.3393 82.155C69.3817 82.155 63.4037 75.6372 63.4037 67.1517C63.4037 58.6662 69.3817 52.1484 76.3393 52.1484C83.2969 52.1484 89.275 58.6662 89.275 67.1517Z" fill="white" stroke="#1D1D1D" stroke-width="3.07698"/>
<path d="M62.209 63.7056H89.7787" stroke="#1D1D1D" stroke-width="3.07698"/>
<g clip-path="url(#clip0_211_2298)">
<path d="M72.913 77.2036C71.4677 77.7348 69.3174 77.523 67.9755 76.6073C66.6336 75.6916 65.5749 74.1336 64.9944 72.22C64.4139 70.3063 64.3505 68.1659 64.816 66.1925C65.2814 64.2191 66.2444 62.5457 67.5277 61.4801C68.8109 60.4144 70.3281 60.0284 71.8 60.393C73.2719 60.7576 74.5995 61.8483 75.5384 63.4643C76.4773 65.0804 76.9644 67.113 76.91 69.1882C76.8555 71.2634 76.2633 73.2415 75.2423 74.7584L72.0894 73.0229L72.913 77.2036Z" fill="#1D1D1D"/>
</g>
<path d="M67.1441 67.1518C67.1441 75.6373 61.1661 82.1552 54.2085 82.1552C47.2509 82.1552 41.2729 75.6373 41.2729 67.1518C41.2729 58.6663 47.2509 52.1485 54.2085 52.1485C61.1661 52.1485 67.1441 58.6663 67.1441 67.1518Z" fill="white" stroke="#1D1D1D" stroke-width="3.07698"/>
<path d="M40.0781 63.7057H67.6478" stroke="#1D1D1D" stroke-width="3.07698"/>
<g clip-path="url(#clip1_211_2298)">
<path d="M50.7822 77.2037C49.3368 77.7349 47.1865 77.5232 45.8446 76.6075C44.5027 75.6918 43.4441 74.1337 42.8635 72.2201C42.283 70.3065 42.2196 68.166 42.6851 66.1926C43.1506 64.2193 44.1135 62.5458 45.3968 61.4802C46.6801 60.4146 48.1972 60.0285 49.6691 60.3931C51.141 60.7577 52.4686 61.8484 53.4075 63.4645C54.3464 65.0805 54.8335 67.1132 54.7791 69.1883C54.7247 71.2635 54.1325 73.2416 53.1114 74.7585L49.9585 73.023L50.7822 77.2037Z" fill="#1D1D1D"/>
</g>
<defs>
<clipPath id="clip0_211_2298">
<rect width="13.7849" height="14.4741" fill="white" transform="translate(63.1289 63.7056)"/>
</clipPath>
<clipPath id="clip1_211_2298">
<rect width="13.7849" height="14.4741" fill="white" transform="translate(41.6875 63.7057)"/>
</clipPath>
</defs>
</svg>
