<svg width="122" height="174" viewBox="0 0 122 174" fill="none" xmlns="http://www.w3.org/2000/svg">
<rect x="19.25" y="62.3634" width="46.9676" height="59.2755" rx="1.5258" fill="#1D1D1D" stroke="#1D1D1D" stroke-width="0.417872"/>
<rect x="15.5576" y="38.9782" width="50.66" height="19.2748" rx="1.5258" fill="#1D1D1D" stroke="#1D1D1D" stroke-width="0.417872"/>
<rect x="70.9433" y="62.3634" width="46.9676" height="59.2755" rx="1.5258" fill="#1D1D1D" stroke="#1D1D1D" stroke-width="0.417872"/>
<rect x="70.9433" y="38.9782" width="50.66" height="19.2748" rx="1.5258" fill="#1D1D1D" stroke="#1D1D1D" stroke-width="0.417872"/>
<path d="M74.4271 41.539C67.3501 42.4621 56.2729 39.6928 52.9669 38.5656C49.8754 37.5115 41.467 34.4002 40.3893 34.001C40.312 33.9724 40.2347 33.9456 40.1568 33.9188C33.0889 31.4838 31.2315 22.3184 36.838 17.3273L48.9674 6.52934C54.605 1.51055 63.5616 4.47671 65.0891 11.8685L69.0664 33.059C69.0664 33.059 69.8116 39.6928 74.4271 41.539Z" fill="#1D1D1D"/>
<path d="M62.1754 41.539C69.2525 42.4621 80.3296 39.6928 83.6356 38.5656C86.7272 37.5115 95.1356 34.4002 96.2133 34.001C96.2906 33.9724 96.3678 33.9456 96.4457 33.9188C103.514 31.4838 105.371 22.3184 99.7646 17.3273L87.6351 6.52934C81.9975 1.51055 73.041 4.47671 71.5134 11.8685L67.5362 33.059C67.5362 33.059 66.7909 39.6928 62.1754 41.539Z" fill="#1D1D1D"/>
<path d="M104.274 67.1517C104.274 75.6372 98.296 82.155 91.3384 82.155C84.3808 82.155 78.4027 75.6372 78.4027 67.1517C78.4027 58.6662 84.3808 52.1484 91.3384 52.1484C98.296 52.1484 104.274 58.6662 104.274 67.1517Z" fill="white" stroke="#1D1D1D" stroke-width="3.07698"/>
<path d="M77.208 63.7056H104.778" stroke="#1D1D1D" stroke-width="3.07698"/>
<g clip-path="url(#clip0_211_2427)">
<path d="M87.9121 77.2036C86.4667 77.7348 84.3164 77.523 82.9745 76.6073C81.6326 75.6916 80.5739 74.1336 79.9934 72.22C79.4129 70.3063 79.3495 68.1659 79.815 66.1925C80.2804 64.2191 81.2434 62.5457 82.5267 61.4801C83.8099 60.4144 85.3271 60.0284 86.799 60.393C88.2709 60.7576 89.5985 61.8483 90.5374 63.4643C91.4763 65.0804 91.9634 67.113 91.909 69.1882C91.8546 71.2634 91.2623 73.2415 90.2413 74.7584L87.0884 73.0229L87.9121 77.2036Z" fill="#1D1D1D"/>
</g>
<path d="M82.1431 67.1518C82.1431 75.6373 76.1651 82.1552 69.2075 82.1552C62.2499 82.1552 56.2719 75.6373 56.2719 67.1518C56.2719 58.6663 62.2499 52.1485 69.2075 52.1485C76.1651 52.1485 82.1431 58.6663 82.1431 67.1518Z" fill="white" stroke="#1D1D1D" stroke-width="3.07698"/>
<path d="M55.0771 63.7057H82.6469" stroke="#1D1D1D" stroke-width="3.07698"/>
<g clip-path="url(#clip1_211_2427)">
<path d="M65.7812 77.2037C64.3358 77.7349 62.1855 77.5232 60.8436 76.6075C59.5017 75.6918 58.4431 74.1337 57.8626 72.2201C57.282 70.3065 57.2187 68.166 57.6841 66.1926C58.1496 64.2193 59.1126 62.5458 60.3958 61.4802C61.6791 60.4146 63.1963 60.0285 64.6682 60.3931C66.1401 60.7577 67.4676 61.8484 68.4065 63.4645C69.3455 65.0805 69.8325 67.1132 69.7781 69.1883C69.7237 71.2635 69.1315 73.2416 68.1104 74.7585L64.9575 73.023L65.7812 77.2037Z" fill="#1D1D1D"/>
</g>
<path d="M67.8345 131.283L72.5298 122H84.7164L79.2466 132.742C77.5 137.5 82 139.5 85.7164 136.5L94.2535 129.468C95.5966 125.622 103.785 121.594 108.128 127.35C111.071 131.252 109.563 130.531 109.94 170H82.4139C81.2911 163.67 84.3068 155.478 93.4757 153.471V141.413C93.4757 141.413 87.3225 149.521 77.8682 149.672C63.357 149.672 65.1483 136.331 67.8345 131.283Z" fill="#1D1D1D"/>
<path d="M97.5005 152.872C97.5005 152.872 95.2387 152.872 93.4757 153.471M93.4757 153.471C84.3068 155.478 81.2911 163.67 82.4139 170H109.94C109.563 130.531 111.071 131.252 108.128 127.35C103.785 121.594 95.5966 125.622 94.2535 129.468L85.7164 136.5C82 139.5 77.5 137.5 79.2466 132.742L84.7164 122H72.5298L67.8345 131.283C65.1483 136.331 63.357 149.672 77.8682 149.672C87.3225 149.521 93.4757 141.413 93.4757 141.413V153.471Z" stroke="#1D1D1D" stroke-width="4.30777"/>
<path d="M36.5414 171.502C32.8696 172.789 1.03293 147.455 2.53086 143.71C12.6425 131.725 21.9999 135 31.5014 148.125L63.9542 100.154L63.499 120.5L42.4831 155.937C44.4996 161.5 39.8662 167.791 36.5414 171.502Z" fill="#1D1D1D"/>
<path d="M30.2703 149.908C29.6113 148.652 32.3092 149.48 31.5014 148.125M31.5014 148.125C21.9999 135 12.6425 131.725 2.53086 143.71C1.03293 147.455 32.8696 172.789 36.5414 171.502C39.8662 167.791 44.4996 161.5 42.4831 155.937L63.499 120.5L63.9542 100.154L31.5014 148.125Z" stroke="#1D1D1D" stroke-width="4.30777"/>
<defs>
<clipPath id="clip0_211_2427">
<rect width="13.7849" height="14.4741" fill="white" transform="translate(78.1279 63.7056)"/>
</clipPath>
<clipPath id="clip1_211_2427">
<rect width="13.7849" height="14.4741" fill="white" transform="translate(56.6865 63.7057)"/>
</clipPath>
</defs>
</svg>
