<svg width="93" height="93" viewBox="0 0 93 93" fill="none" xmlns="http://www.w3.org/2000/svg">
<mask id="path-1-inside-1_83_408" fill="white">
<path d="M46.2193 58.8198C46.2128 59.3751 46.3199 85.1096 46.5343 85.6238C46.7488 86.1381 47.0662 86.6054 47.4679 86.9981C47.8697 87.3907 48.3477 87.701 48.8738 87.9106C49.4 88.1202 49.9637 88.2249 50.5318 88.2185C51.1 88.2249 51.6637 88.1202 52.1898 87.9106C52.716 87.701 53.194 87.3907 53.5957 86.9981C53.9975 86.6054 54.3149 86.1381 54.5293 85.6238C54.7437 85.1096 54.8508 84.5586 54.8443 84.0032V58.8198M33.1021 49.2274C32.9467 49.7617 32.6837 50.2602 32.3284 50.6936C31.9731 51.1271 31.5327 51.4867 31.0332 51.7515C30.5337 52.0162 29.985 52.1807 29.4195 52.2353C28.854 52.2898 28.2831 52.2334 27.7403 52.0692C27.1937 51.9173 26.6837 51.6602 26.2404 51.3128C25.797 50.9655 25.4291 50.5351 25.1584 50.0468C24.8877 49.5584 24.7196 49.0222 24.664 48.4694C24.6084 47.9167 24.6665 47.3587 24.8347 46.8282L29.3269 32.0257C29.8222 30.3983 30.8422 28.971 32.2349 27.9563C33.6275 26.9416 35.3183 26.3939 37.0553 26.3948H55.3834C57.1205 26.3945 58.8112 26.9429 60.2036 27.9583C61.5959 28.9736 62.6153 30.4015 63.1099 32.0292L67.6021 46.8317C67.7704 47.3622 67.8284 47.9202 67.7729 48.473C67.7173 49.0257 67.5492 49.562 67.2785 50.0503C67.0078 50.5386 66.6399 50.969 66.1965 51.3164C65.7531 51.6637 65.2431 51.9208 64.6966 52.0727C64.1542 52.2352 63.5841 52.2903 63.0196 52.2347C62.4552 52.1791 61.9078 52.014 61.4094 51.749C60.9111 51.484 60.4718 51.1245 60.1174 50.6915C59.763 50.2586 59.5006 49.7608 59.3455 49.2274"/>
<path d="M37.5939 58.8198V84.0033C37.5874 84.5586 37.6945 85.1096 37.9089 85.6238C38.1233 86.1381 38.4407 86.6054 38.8425 86.9981C39.2442 87.3907 39.7222 87.701 40.2484 87.9106C40.7745 88.1202 41.3382 88.2249 41.9064 88.2185C42.4745 88.2249 43.0382 88.1202 43.5643 87.9106C44.0905 87.701 44.5685 87.3907 44.9702 86.9981C45.372 86.6054 45.6894 86.1381 45.9038 85.6238C46.1183 85.1096 46.2258 59.3751 46.2193 58.8198"/>
<path d="M37.5936 34.8253L28.9686 62.927H63.4686L54.8436 34.8253"/>
</mask>
<path d="M46.2193 58.8198C46.2128 59.3751 46.3199 85.1096 46.5343 85.6238C46.7488 86.1381 47.0662 86.6054 47.4679 86.9981C47.8697 87.3907 48.3477 87.701 48.8738 87.9106C49.4 88.1202 49.9637 88.2249 50.5318 88.2185C51.1 88.2249 51.6637 88.1202 52.1898 87.9106C52.716 87.701 53.194 87.3907 53.5957 86.9981C53.9975 86.6054 54.3149 86.1381 54.5293 85.6238C54.7437 85.1096 54.8508 84.5586 54.8443 84.0032V58.8198M33.1021 49.2274C32.9467 49.7617 32.6837 50.2602 32.3284 50.6936C31.9731 51.1271 31.5327 51.4867 31.0332 51.7515C30.5337 52.0162 29.985 52.1807 29.4195 52.2353C28.854 52.2898 28.2831 52.2334 27.7403 52.0692C27.1937 51.9173 26.6837 51.6602 26.2404 51.3128C25.797 50.9655 25.4291 50.5351 25.1584 50.0468C24.8877 49.5584 24.7196 49.0222 24.664 48.4694C24.6084 47.9167 24.6665 47.3587 24.8347 46.8282L29.3269 32.0257C29.8222 30.3983 30.8422 28.971 32.2349 27.9563C33.6275 26.9416 35.3183 26.3939 37.0553 26.3948H55.3834C57.1205 26.3945 58.8112 26.9429 60.2036 27.9583C61.5959 28.9736 62.6153 30.4015 63.1099 32.0292L67.6021 46.8317C67.7704 47.3622 67.8284 47.9202 67.7729 48.473C67.7173 49.0257 67.5492 49.562 67.2785 50.0503C67.0078 50.5386 66.6399 50.969 66.1965 51.3164C65.7531 51.6637 65.2431 51.9208 64.6966 52.0727C64.1542 52.2352 63.5841 52.2903 63.0196 52.2347C62.4552 52.1791 61.9078 52.014 61.4094 51.749C60.9111 51.484 60.4718 51.1245 60.1174 50.6915C59.763 50.2586 59.5006 49.7608 59.3455 49.2274" fill="#D9D9D9"/>
<path d="M37.5939 58.8198V84.0033C37.5874 84.5586 37.6945 85.1096 37.9089 85.6238C38.1233 86.1381 38.4407 86.6054 38.8425 86.9981C39.2442 87.3907 39.7222 87.701 40.2484 87.9106C40.7745 88.1202 41.3382 88.2249 41.9064 88.2185C42.4745 88.2249 43.0382 88.1202 43.5643 87.9106C44.0905 87.701 44.5685 87.3907 44.9702 86.9981C45.372 86.6054 45.6894 86.1381 45.9038 85.6238C46.1183 85.1096 46.2258 59.3751 46.2193 58.8198" fill="#D9D9D9"/>
<path d="M37.5936 34.8253L28.9686 62.927H63.4686L54.8436 34.8253" fill="#D9D9D9"/>
<path d="M46.2193 58.8198L49.1097 58.786H43.3289L46.2193 58.8198ZM50.5318 88.2185L50.5642 85.3281L50.5318 85.3277L50.4995 85.3281L50.5318 88.2185ZM54.8443 84.0032H51.9537V84.0202L51.9539 84.0371L54.8443 84.0032ZM57.7349 58.8198C57.7349 57.2234 56.4408 55.9292 54.8443 55.9292C53.2479 55.9292 51.9537 57.2234 51.9537 58.8198H57.7349ZM35.8777 50.0347C36.3236 48.5018 35.4424 46.8977 33.9095 46.4518C32.3766 46.0059 30.7724 46.8871 30.3265 48.4201L35.8777 50.0347ZM27.7403 52.0692L28.5771 49.3023L28.5457 49.2929L28.5142 49.2841L27.7403 52.0692ZM24.8347 46.8282L27.5901 47.7022L27.5955 47.6849L27.6008 47.6676L24.8347 46.8282ZM29.3269 32.0257L26.5615 31.1839L26.5608 31.1862L29.3269 32.0257ZM37.0553 26.3948L37.0539 29.2854H37.0553V26.3948ZM55.3834 26.3948V29.2854H55.3838L55.3834 26.3948ZM63.1099 32.0292L65.876 31.1897L65.8757 31.1887L63.1099 32.0292ZM67.6021 46.8317L64.8361 47.6712L64.8413 47.6884L64.8468 47.7057L67.6021 46.8317ZM64.6966 52.0727L63.9227 49.2876L63.8948 49.2954L63.867 49.3037L64.6966 52.0727ZM62.1211 48.4202C61.6754 46.8873 60.0713 46.006 58.5383 46.4518C57.0054 46.8975 56.1241 48.5016 56.5698 50.0346L62.1211 48.4202ZM40.4845 58.8198C40.4845 57.2234 39.1903 55.9292 37.5939 55.9292C35.9974 55.9292 34.7032 57.2234 34.7032 58.8198H40.4845ZM37.5939 84.0033L40.4843 84.0371L40.4845 84.0202V84.0033H37.5939ZM41.9064 88.2185L41.9387 85.3281L41.9064 85.3277L41.874 85.3281L41.9064 88.2185ZM40.357 35.6734C40.8254 34.1472 39.9679 32.5303 38.4417 32.0619C36.9155 31.5935 35.2986 32.451 34.8302 33.9771L40.357 35.6734ZM28.9686 62.927L26.2052 62.0788L25.0577 65.8176H28.9686V62.927ZM63.4686 62.927V65.8176H67.3795L66.232 62.0788L63.4686 62.927ZM57.607 33.9771C57.1386 32.451 55.5216 31.5935 53.9954 32.0619C52.4693 32.5303 51.6118 34.1472 52.0802 35.6734L57.607 33.9771ZM43.3289 58.786C43.3252 59.0999 43.3508 65.7095 43.4035 72.2604C43.4299 75.5461 43.4632 78.8378 43.5035 81.3433C43.5236 82.594 43.5456 83.6609 43.5697 84.437C43.5817 84.822 43.5948 85.1555 43.6096 85.4113C43.6168 85.5357 43.626 85.6707 43.6388 85.7959C43.6449 85.8563 43.6551 85.9468 43.6717 86.0482C43.6752 86.0697 43.7198 86.3848 43.8663 86.7362L49.2024 84.5115C49.2888 84.7187 49.3296 84.8876 49.3433 84.9459C49.3616 85.0235 49.372 85.084 49.3771 85.1147C49.3826 85.1488 49.386 85.1741 49.3876 85.1869C49.3893 85.2006 49.3902 85.209 49.3903 85.2107C49.3906 85.2131 49.3896 85.2033 49.3877 85.1776C49.3859 85.153 49.3837 85.1199 49.3812 85.077C49.3709 84.8991 49.3597 84.6264 49.3482 84.2574C49.3255 83.5256 49.304 82.4933 49.284 81.2504C49.2441 78.7687 49.2109 75.4956 49.1845 72.214C49.1582 68.934 49.1387 65.6521 49.1262 63.1555C49.12 61.9072 49.1155 60.8557 49.1128 60.0995C49.1114 59.7213 49.1105 59.4176 49.1101 59.2004C49.1098 59.0916 49.1097 59.0056 49.1097 58.9433C49.1096 58.8725 49.1098 58.8499 49.1097 58.8536L43.3289 58.786ZM43.8663 86.7362C44.2315 87.6121 44.7702 88.4033 45.4474 89.0652L49.4885 84.9309C49.3622 84.8074 49.266 84.6642 49.2024 84.5115L43.8663 86.7362ZM45.4474 89.0652C46.1244 89.727 46.9263 90.2463 47.8041 90.596L49.9435 85.2252C49.7691 85.1557 49.6149 85.0545 49.4885 84.9309L45.4474 89.0652ZM47.8041 90.596C48.6819 90.9456 49.6201 91.1195 50.5642 91.1089L50.4995 85.3281C50.3073 85.3302 50.1181 85.2947 49.9435 85.2252L47.8041 90.596ZM50.4995 91.1089C51.4436 91.1195 52.3817 90.9456 53.2595 90.596L51.1201 85.2252C50.9456 85.2947 50.7563 85.3302 50.5642 85.3281L50.4995 91.1089ZM53.2595 90.596C54.1374 90.2463 54.9392 89.727 55.6163 89.0652L51.5752 84.9309C51.4487 85.0545 51.2946 85.1557 51.1201 85.2252L53.2595 90.596ZM55.6163 89.0652C56.2934 88.4033 56.8322 87.6121 57.1973 86.7362L51.8613 84.5115C51.7976 84.6642 51.7015 84.8074 51.5752 84.9309L55.6163 89.0652ZM57.1973 86.7362C57.5626 85.8602 57.7459 84.9193 57.7347 83.9694L51.9539 84.0371C51.9558 84.1978 51.9249 84.3589 51.8613 84.5115L57.1973 86.7362ZM57.7349 84.0032V58.8198H51.9537V84.0032H57.7349ZM30.3265 48.4201C30.2809 48.5768 30.2026 48.7272 30.0928 48.8611L34.5639 52.5261C35.1647 51.7931 35.6125 50.9465 35.8777 50.0347L30.3265 48.4201ZM30.0928 48.8611C29.9828 48.9953 29.8431 49.1107 29.6795 49.1974L32.3868 54.3056C33.2223 53.8628 33.9633 53.2589 34.5639 52.5261L30.0928 48.8611ZM29.6795 49.1974C29.5158 49.2842 29.3329 49.3396 29.1419 49.358L29.6971 55.1126C30.6371 55.0219 31.5515 54.7483 32.3868 54.3056L29.6795 49.1974ZM29.1419 49.358C28.9509 49.3764 28.7586 49.3572 28.5771 49.3023L26.9034 54.836C27.8076 55.1095 28.7572 55.2032 29.6971 55.1126L29.1419 49.358ZM28.5142 49.2841C28.3314 49.2333 28.1647 49.1483 28.0229 49.0372L24.4578 53.5884C25.2028 54.172 26.0561 54.6013 26.9664 54.8543L28.5142 49.2841ZM28.0229 49.0372C27.8812 48.9263 27.768 48.7922 27.6865 48.6452L22.6303 51.4483C23.0902 52.278 23.7127 53.0048 24.4578 53.5884L28.0229 49.0372ZM27.6865 48.6452C27.6051 48.4984 27.5562 48.3403 27.5401 48.1802L21.7879 48.7587C21.8829 49.704 22.1702 50.6185 22.6303 51.4483L27.6865 48.6452ZM27.5401 48.1802C27.524 48.0201 27.5407 47.8579 27.5901 47.7022L22.0794 45.9543C21.7922 46.8595 21.6928 47.8133 21.7879 48.7587L27.5401 48.1802ZM27.6008 47.6676L32.093 32.8651L26.5608 31.1862L22.0687 45.9888L27.6008 47.6676ZM32.0923 32.8674C32.4023 31.8488 33.0445 30.9429 33.9371 30.2926L30.5327 25.6201C28.6399 26.9991 27.2422 28.9479 26.5615 31.1839L32.0923 32.8674ZM33.9371 30.2926C34.8306 29.6416 35.9238 29.2849 37.0539 29.2854L37.0567 23.5042C34.7128 23.503 32.4244 24.2417 30.5327 25.6201L33.9371 30.2926ZM37.0553 29.2854H55.3834V23.5042H37.0553V29.2854ZM55.3838 29.2854C56.5139 29.2852 57.6071 29.6424 58.5004 30.2938L61.9067 25.6227C60.0154 24.2435 57.7271 23.5038 55.383 23.5042L55.3838 29.2854ZM58.5004 30.2938C59.3927 30.9445 60.0346 31.8508 60.3442 32.8696L65.8757 31.1887C65.1961 28.9522 63.7991 27.0026 61.9067 25.6227L58.5004 30.2938ZM60.3439 32.8686L64.8361 47.6712L70.3682 45.9923L65.876 31.1897L60.3439 32.8686ZM64.8468 47.7057C64.8962 47.8614 64.9128 48.0236 64.8967 48.1837L70.649 48.7622C70.744 47.8168 70.6446 46.863 70.3575 45.9578L64.8468 47.7057ZM64.8967 48.1837C64.8806 48.3439 64.8317 48.5019 64.7504 48.6487L69.8066 51.4518C70.2666 50.622 70.5539 49.7075 70.649 48.7622L64.8967 48.1837ZM64.7504 48.6487C64.6689 48.7957 64.5556 48.9298 64.414 49.0408L67.979 53.592C68.7241 53.0083 69.3466 52.2815 69.8066 51.4518L64.7504 48.6487ZM64.414 49.0408C64.2722 49.1518 64.1055 49.2368 63.9227 49.2876L65.4705 54.8578C66.3808 54.6049 67.234 54.1755 67.979 53.592L64.414 49.0408ZM63.867 49.3037C63.6856 49.358 63.4936 49.3768 63.3029 49.358L62.7364 55.1114C63.6746 55.2038 64.6227 55.1124 65.5262 54.8417L63.867 49.3037ZM63.3029 49.358C63.1122 49.3392 62.9299 49.2836 62.7665 49.1968L60.0523 54.3013C60.8857 54.7444 61.7981 55.019 62.7364 55.1114L63.3029 49.358ZM62.7665 49.1968C62.6033 49.11 62.464 48.9946 62.3543 48.8607L57.8806 52.5224C58.4797 53.2544 59.2189 53.8581 60.0523 54.3013L62.7665 49.1968ZM62.3543 48.8607C62.2448 48.7269 62.1667 48.5768 62.1211 48.4202L56.5698 50.0346C56.8345 50.9448 57.2813 51.7902 57.8806 52.5224L62.3543 48.8607ZM34.7032 58.8198V84.0033H40.4845V58.8198H34.7032ZM34.7034 83.9694C34.6923 84.9193 34.8756 85.8602 35.2409 86.7362L40.5769 84.5115C40.5133 84.3589 40.4824 84.1978 40.4843 84.0371L34.7034 83.9694ZM35.2409 86.7362C35.606 87.6121 36.1447 88.4033 36.8219 89.0652L40.863 84.9309C40.7367 84.8074 40.6406 84.6642 40.5769 84.5115L35.2409 86.7362ZM36.8219 89.0652C37.499 89.727 38.3008 90.2463 39.1787 90.596L41.3181 85.2252C41.1436 85.1557 40.9895 85.0545 40.863 84.9309L36.8219 89.0652ZM39.1787 90.596C40.0564 90.9456 40.9946 91.1195 41.9387 91.1089L41.874 85.3281C41.6819 85.3302 41.4926 85.2947 41.3181 85.2252L39.1787 90.596ZM41.874 91.1089C42.8181 91.1195 43.7563 90.9456 44.634 90.596L42.4946 85.2252C42.3201 85.2947 42.1309 85.3302 41.9387 85.3281L41.874 91.1089ZM44.634 90.596C45.5119 90.2463 46.3137 89.727 46.9908 89.0652L42.9497 84.9309C42.8232 85.0545 42.6691 85.1557 42.4946 85.2252L44.634 90.596ZM46.9908 89.0652C47.668 88.4033 48.2067 87.6121 48.5719 86.7362L43.2358 84.5115C43.1721 84.6642 43.076 84.8074 42.9497 84.9309L46.9908 89.0652ZM48.5719 86.7362C48.7184 86.3848 48.763 86.0698 48.7665 86.0482C48.7831 85.9468 48.7933 85.8563 48.7994 85.7959C48.8121 85.6707 48.8214 85.5357 48.8286 85.4114C48.8434 85.1556 48.8565 84.8221 48.8684 84.4371C48.8926 83.661 48.9146 82.5941 48.9348 81.3434C48.9751 78.8379 49.0085 75.5462 49.035 72.2605C49.0877 65.7096 49.1134 59.0999 49.1097 58.786L43.3289 58.8536C43.3289 58.8499 43.329 58.8724 43.329 58.9432C43.329 59.0056 43.3288 59.0916 43.3286 59.2003C43.3281 59.4175 43.3272 59.7212 43.3258 60.0994C43.3231 60.8557 43.3186 61.9071 43.3123 63.1554C43.2998 65.6521 43.2803 68.934 43.2539 72.2139C43.2275 75.4955 43.1942 78.7686 43.1543 81.2503C43.1342 82.4932 43.1128 83.5255 43.09 84.2574C43.0785 84.6264 43.0673 84.899 43.057 85.077C43.0545 85.1198 43.0523 85.153 43.0505 85.1776C43.0486 85.2033 43.0476 85.213 43.0478 85.2106C43.048 85.209 43.0489 85.2006 43.0506 85.1869C43.0522 85.174 43.0555 85.1487 43.0611 85.1147C43.0661 85.084 43.0766 85.0235 43.0949 84.9459C43.1086 84.8876 43.1494 84.7187 43.2358 84.5115L48.5719 86.7362ZM34.8302 33.9771L26.2052 62.0788L31.732 63.7751L40.357 35.6734L34.8302 33.9771ZM28.9686 65.8176H63.4686V60.0364H28.9686V65.8176ZM66.232 62.0788L57.607 33.9771L52.0802 35.6734L60.7052 63.7751L66.232 62.0788Z" fill="#D9D9D9" mask="url(#path-1-inside-1_83_408)"/>
<path d="M51.9609 15.5272C51.9609 18.6985 49.3901 21.2694 46.2187 21.2694C43.0474 21.2694 40.4766 18.6985 40.4766 15.5272C40.4766 12.3559 43.0474 9.78503 46.2187 9.78503C49.3901 9.78503 51.9609 12.3559 51.9609 15.5272Z" fill="#D9D9D9" stroke="#D9D9D9" stroke-width="2.89062" stroke-miterlimit="10" stroke-linecap="round"/>
</svg>
